<svg xmlns="http://www.w3.org/2000/svg" viewBox="0 0 2400 900">
  <defs>
    <style>
      .arch-title { font-size: 28px; font-weight: bold; fill: #fff; }
      .category-title { font-size: 16px; font-weight: bold; fill: #fff; }
      .module-title { font-size: 14px; font-weight: bold; fill: #13c2c2; }
      .function-item { font-size: 11px; fill: #262626; text-anchor: middle; }
      .function-box { fill: #ffffff; stroke: #d9d9d9; stroke-width: 1.5; rx: 4; }
      .module-box { fill: #e6fffb; stroke: #13c2c2; stroke-width: 2; rx: 8; }
      .header-bg { fill: #13c2c2; }
      .category-bg1 { fill: #13c2c2; opacity: 0.9; }
      .category-bg2 { fill: #1890ff; opacity: 0.9; }
      .category-bg3 { fill: #fa8c16; opacity: 0.9; }
      .category-bg4 { fill: #52c41a; opacity: 0.9; }
      .category-bg5 { fill: #722ed1; opacity: 0.9; }
    </style>
  </defs>

  <!-- 顶部标题栏 -->
  <rect x="0" y="0" width="2400" height="60" class="header-bg" rx="0"/>
  <text x="1200" y="40" class="arch-title" text-anchor="middle">智慧产运销系统 - 三级功能架构</text>

  <!-- ==================== 一级分类 ==================== -->
  
  <!-- 1. 销售管理 -->
  <rect x="30" y="80" width="450" height="45" class="category-bg1" rx="8"/>
  <text x="255" y="108" class="category-title" text-anchor="middle">销售管理</text>
  
  <!-- 2. 库存管理 -->
  <rect x="500" y="80" width="450" height="45" class="category-bg2" rx="8"/>
  <text x="725" y="108" class="category-title" text-anchor="middle">库存管理</text>
  
  <!-- 3. 地磅管理 -->
  <rect x="970" y="80" width="450" height="45" class="category-bg3" rx="8"/>
  <text x="1195" y="108" class="category-title" text-anchor="middle">地磅管理</text>
  
  <!-- 4. 报表分析 -->
  <rect x="1440" y="80" width="450" height="45" class="category-bg4" rx="8"/>
  <text x="1665" y="108" class="category-title" text-anchor="middle">报表分析</text>
  
  <!-- 5. 基础数据 -->
  <rect x="1910" y="80" width="450" height="45" class="category-bg5" rx="8"/>
  <text x="2135" y="108" class="category-title" text-anchor="middle">基础数据</text>

  <!-- ==================== 销售管理 - 二级模块 ==================== -->
  
  <!-- 模块1: 销售计划 -->
  <rect x="40" y="145" width="140" height="290" class="module-box"/>
  <text x="110" y="165" class="module-title" text-anchor="middle">销售计划</text>
  
  <rect x="45" y="175" width="130" height="28" class="function-box"/>
  <text x="110" y="192" class="function-item">创建销售计划</text>
  
  <rect x="45" y="208" width="130" height="28" class="function-box"/>
  <text x="110" y="225" class="function-item">销售计划审批</text>
  
  <rect x="45" y="241" width="130" height="28" class="function-box"/>
  <text x="110" y="258" class="function-item">计划执行跟踪</text>
  
  <rect x="45" y="274" width="130" height="28" class="function-box"/>
  <text x="110" y="291" class="function-item">计划完成率统计</text>
  
  <rect x="45" y="307" width="130" height="28" class="function-box"/>
  <text x="110" y="324" class="function-item">计划调整管理</text>
  
  <rect x="45" y="340" width="130" height="28" class="function-box"/>
  <text x="110" y="357" class="function-item">历史计划查询</text>
  
  <rect x="45" y="373" width="130" height="28" class="function-box"/>
  <text x="110" y="390" class="function-item">计划对比分析</text>
  
  <rect x="45" y="406" width="130" height="28" class="function-box"/>
  <text x="110" y="423" class="function-item">计划模板管理</text>

  <!-- 模块2: 销售执行 -->
  <rect x="190" y="145" width="140" height="257" class="module-box"/>
  <text x="260" y="165" class="module-title" text-anchor="middle">销售执行</text>
  
  <rect x="195" y="175" width="130" height="28" class="function-box"/>
  <text x="260" y="192" class="function-item">销售订单创建</text>
  
  <rect x="195" y="208" width="130" height="28" class="function-box"/>
  <text x="260" y="225" class="function-item">订单审批流程</text>
  
  <rect x="195" y="241" width="130" height="28" class="function-box"/>
  <text x="260" y="258" class="function-item">订单执行跟踪</text>
  
  <rect x="195" y="274" width="130" height="28" class="function-box"/>
  <text x="260" y="291" class="function-item">装车任务管理</text>
  
  <rect x="195" y="307" width="130" height="28" class="function-box"/>
  <text x="260" y="324" class="function-item">称重单据生成</text>
  
  <rect x="195" y="340" width="130" height="28" class="function-box"/>
  <text x="260" y="357" class="function-item">销售单据查询</text>
  
  <rect x="195" y="373" width="130" height="28" class="function-box"/>
  <text x="260" y="390" class="function-item">客户反馈管理</text>

  <!-- 模块3: 客户管理 -->
  <rect x="340" y="145" width="140" height="190" class="module-box"/>
  <text x="410" y="165" class="module-title" text-anchor="middle">客户管理</text>
  
  <rect x="345" y="175" width="130" height="28" class="function-box"/>
  <text x="410" y="192" class="function-item">客户档案管理</text>
  
  <rect x="345" y="208" width="130" height="28" class="function-box"/>
  <text x="410" y="225" class="function-item">客户信用管理</text>
  
  <rect x="345" y="241" width="130" height="28" class="function-box"/>
  <text x="410" y="258" class="function-item">客户合同管理</text>
  
  <rect x="345" y="274" width="130" height="28" class="function-box"/>
  <text x="410" y="291" class="function-item">客户对账管理</text>
  
  <rect x="345" y="307" width="130" height="28" class="function-box"/>
  <text x="410" y="324" class="function-item">客户画像分析</text>

  <!-- ==================== 库存管理 - 二级模块 ==================== -->
  
  <!-- 模块4: 库存监控 -->
  <rect x="510" y="145" width="140" height="290" class="module-box"/>
  <text x="580" y="165" class="module-title" text-anchor="middle">库存监控</text>
  
  <rect x="515" y="175" width="130" height="28" class="function-box"/>
  <text x="580" y="192" class="function-item">筒仓料位监测</text>
  
  <rect x="515" y="208" width="130" height="28" class="function-box"/>
  <text x="580" y="225" class="function-item">临时堆煤盘点</text>
  
  <rect x="515" y="241" width="130" height="28" class="function-box"/>
  <text x="580" y="258" class="function-item">库存动态计算</text>
  
  <rect x="515" y="274" width="130" height="28" class="function-box"/>
  <text x="580" y="291" class="function-item">库存实时看板</text>
  
  <rect x="515" y="307" width="130" height="28" class="function-box"/>
  <text x="580" y="324" class="function-item">库存历史查询</text>
  
  <rect x="515" y="340" width="130" height="28" class="function-box"/>
  <text x="580" y="357" class="function-item">库存趋势分析</text>
  
  <rect x="515" y="373" width="130" height="28" class="function-box"/>
  <text x="580" y="390" class="function-item">库存周转率</text>
  
  <rect x="515" y="406" width="130" height="28" class="function-box"/>
  <text x="580" y="423" class="function-item">库存盘点管理</text>

  <!-- 模块5: 库存预警 -->
  <rect x="660" y="145" width="140" height="223" class="module-box"/>
  <text x="730" y="165" class="module-title" text-anchor="middle">库存预警</text>
  
  <rect x="665" y="175" width="130" height="28" class="function-box"/>
  <text x="730" y="192" class="function-item">安全库存设置</text>
  
  <rect x="665" y="208" width="130" height="28" class="function-box"/>
  <text x="730" y="225" class="function-item">库存不足预警</text>
  
  <rect x="665" y="241" width="130" height="28" class="function-box"/>
  <text x="730" y="258" class="function-item">库存过高预警</text>
  
  <rect x="665" y="274" width="130" height="28" class="function-box"/>
  <text x="730" y="291" class="function-item">预警规则配置</text>
  
  <rect x="665" y="307" width="130" height="28" class="function-box"/>
  <text x="730" y="324" class="function-item">预警记录查询</text>
  
  <rect x="665" y="340" width="130" height="28" class="function-box"/>
  <text x="730" y="357" class="function-item">预警统计分析</text>

  <!-- 模块6: 损耗管理 -->
  <rect x="810" y="145" width="140" height="190" class="module-box"/>
  <text x="880" y="165" class="module-title" text-anchor="middle">损耗管理</text>
  
  <rect x="815" y="175" width="130" height="28" class="function-box"/>
  <text x="880" y="192" class="function-item">损耗类型管理</text>
  
  <rect x="815" y="208" width="130" height="28" class="function-box"/>
  <text x="880" y="225" class="function-item">损耗数据录入</text>
  
  <rect x="815" y="241" width="130" height="28" class="function-box"/>
  <text x="880" y="258" class="function-item">损耗统计分析</text>
  
  <rect x="815" y="274" width="130" height="28" class="function-box"/>
  <text x="880" y="291" class="function-item">损耗对比分析</text>
  
  <rect x="815" y="307" width="130" height="28" class="function-box"/>
  <text x="880" y="324" class="function-item">损耗优化建议</text>

  <!-- ==================== 地磅管理 - 二级模块 ==================== -->
  
  <!-- 模块7: 无人值守地磅 -->
  <rect x="980" y="145" width="140" height="290" class="module-box"/>
  <text x="1050" y="165" class="module-title" text-anchor="middle">无人值守地磅</text>
  
  <rect x="985" y="175" width="130" height="28" class="function-box"/>
  <text x="1050" y="192" class="function-item">车牌自动识别</text>
  
  <rect x="985" y="208" width="130" height="28" class="function-box"/>
  <text x="1050" y="225" class="function-item">车辆信息比对</text>
  
  <rect x="985" y="241" width="130" height="28" class="function-box"/>
  <text x="1050" y="258" class="function-item">自动称重计量</text>
  
  <rect x="985" y="274" width="130" height="28" class="function-box"/>
  <text x="1050" y="291" class="function-item">称重数据记录</text>
  
  <rect x="985" y="307" width="130" height="28" class="function-box"/>
  <text x="1050" y="324" class="function-item">异常情况预警</text>
  
  <rect x="985" y="340" width="130" height="28" class="function-box"/>
  <text x="1050" y="357" class="function-item">装车视频监控</text>
  
  <rect x="985" y="373" width="130" height="28" class="function-box"/>
  <text x="1050" y="390" class="function-item">视频录像存储</text>
  
  <rect x="985" y="406" width="130" height="28" class="function-box"/>
  <text x="1050" y="423" class="function-item">录像回放查询</text>

  <!-- 模块8: 地磅数据管理 -->
  <rect x="1130" y="145" width="140" height="257" class="module-box"/>
  <text x="1200" y="165" class="module-title" text-anchor="middle">地磅数据管理</text>
  
  <rect x="1135" y="175" width="130" height="28" class="function-box"/>
  <text x="1200" y="192" class="function-item">称重数据查询</text>
  
  <rect x="1135" y="208" width="130" height="28" class="function-box"/>
  <text x="1200" y="225" class="function-item">称重单据打印</text>
  
  <rect x="1135" y="241" width="130" height="28" class="function-box"/>
  <text x="1200" y="258" class="function-item">数据修正管理</text>
  
  <rect x="1135" y="274" width="130" height="28" class="function-box"/>
  <text x="1200" y="291" class="function-item">数据统计分析</text>
  
  <rect x="1135" y="307" width="130" height="28" class="function-box"/>
  <text x="1200" y="324" class="function-item">异常数据处理</text>
  
  <rect x="1135" y="340" width="130" height="28" class="function-box"/>
  <text x="1200" y="357" class="function-item">地磅看板展示</text>
  
  <rect x="1135" y="373" width="130" height="28" class="function-box"/>
  <text x="1200" y="390" class="function-item">实时数据监控</text>

  <!-- 模块9: 地磅维护 -->
  <rect x="1280" y="145" width="140" height="157" class="module-box"/>
  <text x="1350" y="165" class="module-title" text-anchor="middle">地磅维护</text>
  
  <rect x="1285" y="175" width="130" height="28" class="function-box"/>
  <text x="1350" y="192" class="function-item">地磅校准管理</text>
  
  <rect x="1285" y="208" width="130" height="28" class="function-box"/>
  <text x="1350" y="225" class="function-item">维护记录管理</text>
  
  <rect x="1285" y="241" width="130" height="28" class="function-box"/>
  <text x="1350" y="258" class="function-item">故障报修处理</text>
  
  <rect x="1285" y="274" width="130" height="28" class="function-box"/>
  <text x="1350" y="291" class="function-item">设备参数配置</text>

  <!-- ==================== 报表分析 - 二级模块 ==================== -->
  
  <!-- 模块10: 产存销报表 -->
  <rect x="1450" y="145" width="140" height="223" class="module-box"/>
  <text x="1520" y="165" class="module-title" text-anchor="middle">产存销报表</text>
  
  <rect x="1455" y="175" width="130" height="28" class="function-box"/>
  <text x="1520" y="192" class="function-item">产存销综合报表</text>
  
  <rect x="1455" y="208" width="130" height="28" class="function-box"/>
  <text x="1520" y="225" class="function-item">产存销平衡表</text>
  
  <rect x="1455" y="241" width="130" height="28" class="function-box"/>
  <text x="1520" y="258" class="function-item">日报周报月报</text>
  
  <rect x="1455" y="274" width="130" height="28" class="function-box"/>
  <text x="1520" y="291" class="function-item">多维度数据图表</text>
  
  <rect x="1455" y="307" width="130" height="28" class="function-box"/>
  <text x="1520" y="324" class="function-item">报表数据钻取</text>
  
  <rect x="1455" y="340" width="130" height="28" class="function-box"/>
  <text x="1520" y="357" class="function-item">报表导出打印</text>

  <!-- 模块11: 销售分析 -->
  <rect x="1600" y="145" width="140" height="223" class="module-box"/>
  <text x="1670" y="165" class="module-title" text-anchor="middle">销售分析</text>
  
  <rect x="1605" y="175" width="130" height="28" class="function-box"/>
  <text x="1670" y="192" class="function-item">销售趋势分析</text>
  
  <rect x="1605" y="208" width="130" height="28" class="function-box"/>
  <text x="1670" y="225" class="function-item">销售预测分析</text>
  
  <rect x="1605" y="241" width="130" height="28" class="function-box"/>
  <text x="1670" y="258" class="function-item">客户销售排名</text>
  
  <rect x="1605" y="274" width="130" height="28" class="function-box"/>
  <text x="1670" y="291" class="function-item">煤种销售分析</text>
  
  <rect x="1605" y="307" width="130" height="28" class="function-box"/>
  <text x="1670" y="324" class="function-item">销售对比分析</text>
  
  <rect x="1605" y="340" width="130" height="28" class="function-box"/>
  <text x="1670" y="357" class="function-item">销售策略建议</text>

  <!-- 模块12: 数据大屏 -->
  <rect x="1750" y="145" width="140" height="157" class="module-box"/>
  <text x="1820" y="165" class="module-title" text-anchor="middle">数据大屏</text>
  
  <rect x="1755" y="175" width="130" height="28" class="function-box"/>
  <text x="1820" y="192" class="function-item">产运销驾驶舱</text>
  
  <rect x="1755" y="208" width="130" height="28" class="function-box"/>
  <text x="1820" y="225" class="function-item">实时数据展示</text>
  
  <rect x="1755" y="241" width="130" height="28" class="function-box"/>
  <text x="1820" y="258" class="function-item">KPI指标看板</text>
  
  <rect x="1755" y="274" width="130" height="28" class="function-box"/>
  <text x="1820" y="291" class="function-item">可视化图表</text>

  <!-- ==================== 基础数据 - 二级模块 ==================== -->
  
  <!-- 模块13: 基础数据 -->
  <rect x="1920" y="145" width="290" height="290" class="module-box"/>
  <text x="2065" y="165" class="module-title" text-anchor="middle">基础数据管理</text>
  
  <rect x="1925" y="175" width="130" height="28" class="function-box"/>
  <text x="1990" y="192" class="function-item">煤种数据管理</text>
  
  <rect x="2075" y="175" width="130" height="28" class="function-box"/>
  <text x="2140" y="192" class="function-item">车辆数据管理</text>
  
  <rect x="1925" y="208" width="130" height="28" class="function-box"/>
  <text x="1990" y="225" class="function-item">司机数据管理</text>
  
  <rect x="2075" y="208" width="130" height="28" class="function-box"/>
  <text x="2140" y="225" class="function-item">客户数据管理</text>
  
  <rect x="1925" y="241" width="130" height="28" class="function-box"/>
  <text x="1990" y="258" class="function-item">价格数据管理</text>
  
  <rect x="2075" y="241" width="130" height="28" class="function-box"/>
  <text x="2140" y="258" class="function-item">仓储数据管理</text>
  
  <rect x="1925" y="274" width="130" height="28" class="function-box"/>
  <text x="1990" y="291" class="function-item">权限角色管理</text>
  
  <rect x="2075" y="274" width="130" height="28" class="function-box"/>
  <text x="2140" y="291" class="function-item">系统配置管理</text>
  
  <rect x="1925" y="307" width="130" height="28" class="function-box"/>
  <text x="1990" y="324" class="function-item">操作日志管理</text>
  
  <rect x="2075" y="307" width="130" height="28" class="function-box"/>
  <text x="2140" y="324" class="function-item">数据导入导出</text>

  <!-- ==================== 底部说明 ==================== -->
  <rect x="40" y="460" width="2320" height="100" fill="#e6fffb" stroke="#13c2c2" stroke-width="2" rx="10"/>
  <text x="1200" y="495" class="module-title" text-anchor="middle" fill="#13c2c2" font-size="16px">三级功能架构说明</text>
  
  <text x="70" y="520" class="function-item" text-anchor="start" font-size="12px">• <tspan font-weight="bold">一级分类</tspan>（5个）：销售管理、库存管理、地磅管理、报表分析、基础数据 - 覆盖产运销全流程</text>
  <text x="70" y="537" class="function-item" text-anchor="start" font-size="12px">• <tspan font-weight="bold">二级模块</tspan>（13个）：销售计划、库存监控、无人值守地磅、产存销报表等 - 具体业务模块</text>
  <text x="70" y="554" class="function-item" text-anchor="start" font-size="12px">• <tspan font-weight="bold">三级功能点</tspan>（70+个）：创建销售计划、车牌自动识别、库存动态计算等 - 最小功能单元（每个代表一个可执行的具体操作）</text>

</svg>
