<svg xmlns="http://www.w3.org/2000/svg" viewBox="0 0 2400 900">
  <defs>
    <style>
      .arch-title { font-size: 28px; font-weight: bold; fill: #fff; }
      .category-title { font-size: 16px; font-weight: bold; fill: #fff; }
      .module-title { font-size: 14px; font-weight: bold; fill: #1890ff; }
      .function-item { font-size: 11px; fill: #262626; text-anchor: middle; }
      .function-box { fill: #ffffff; stroke: #d9d9d9; stroke-width: 1.5; rx: 4; }
      .module-box { fill: #f0f5ff; stroke: #1890ff; stroke-width: 2; rx: 8; }
      .header-bg { fill: #1890ff; }
      .category-bg1 { fill: #1890ff; opacity: 0.9; }
      .category-bg2 { fill: #52c41a; opacity: 0.9; }
      .category-bg3 { fill: #fa8c16; opacity: 0.9; }
      .category-bg4 { fill: #722ed1; opacity: 0.9; }
      .category-bg5 { fill: #13c2c2; opacity: 0.9; }
    </style>
  </defs>

  <!-- 顶部标题栏 -->
  <rect x="0" y="0" width="2400" height="60" class="header-bg" rx="0"/>
  <text x="1200" y="40" class="arch-title" text-anchor="middle">智慧设备管理系统 - 三级功能架构</text>

  <!-- ==================== 一级分类 ==================== -->
  
  <!-- 1. 设备档案管理 -->
  <rect x="30" y="80" width="450" height="45" class="category-bg1" rx="8"/>
  <text x="255" y="108" class="category-title" text-anchor="middle">设备档案管理</text>
  
  <!-- 2. 预防性维护 -->
  <rect x="500" y="80" width="450" height="45" class="category-bg2" rx="8"/>
  <text x="725" y="108" class="category-title" text-anchor="middle">预防性维护</text>
  
  <!-- 3. 维修管理 -->
  <rect x="970" y="80" width="450" height="45" class="category-bg3" rx="8"/>
  <text x="1195" y="108" class="category-title" text-anchor="middle">维修管理</text>
  
  <!-- 4. 报表分析 -->
  <rect x="1440" y="80" width="450" height="45" class="category-bg4" rx="8"/>
  <text x="1665" y="108" class="category-title" text-anchor="middle">报表分析</text>
  
  <!-- 5. 基础数据 -->
  <rect x="1910" y="80" width="450" height="45" class="category-bg5" rx="8"/>
  <text x="2135" y="108" class="category-title" text-anchor="middle">基础数据</text>

  <!-- ==================== 设备档案管理 - 二级模块 ==================== -->
  
  <!-- 模块1: 设备信息管理 -->
  <rect x="40" y="145" width="140" height="355" class="module-box"/>
  <text x="110" y="165" class="module-title" text-anchor="middle">设备信息管理</text>
  
  <rect x="45" y="175" width="130" height="28" class="function-box"/>
  <text x="110" y="192" class="function-item">创建设备档案</text>
  
  <rect x="45" y="208" width="130" height="28" class="function-box"/>
  <text x="110" y="225" class="function-item">设备档案查询</text>
  
  <rect x="45" y="241" width="130" height="28" class="function-box"/>
  <text x="110" y="258" class="function-item">设备档案编辑</text>
  
  <rect x="45" y="274" width="130" height="28" class="function-box"/>
  <text x="110" y="291" class="function-item">设备分类管理</text>
  
  <rect x="45" y="307" width="130" height="28" class="function-box"/>
  <text x="110" y="324" class="function-item">设备状态管理</text>
  
  <rect x="45" y="340" width="130" height="28" class="function-box"/>
  <text x="110" y="357" class="function-item">设备历史记录</text>
  
  <rect x="45" y="373" width="130" height="28" class="function-box"/>
  <text x="110" y="390" class="function-item">设备报废处理</text>
  
  <rect x="45" y="406" width="130" height="28" class="function-box"/>
  <text x="110" y="423" class="function-item">设备转移调拨</text>
  
  <rect x="45" y="439" width="130" height="28" class="function-box"/>
  <text x="110" y="456" class="function-item">设备健康度评估</text>

  <!-- 模块2: 设备看板 -->
  <rect x="190" y="145" width="140" height="190" class="module-box"/>
  <text x="260" y="165" class="module-title" text-anchor="middle">设备看板</text>
  
  <rect x="195" y="175" width="130" height="28" class="function-box"/>
  <text x="260" y="192" class="function-item">设备总览看板</text>
  
  <rect x="195" y="208" width="130" height="28" class="function-box"/>
  <text x="260" y="225" class="function-item">设备状态统计</text>
  
  <rect x="195" y="241" width="130" height="28" class="function-box"/>
  <text x="260" y="258" class="function-item">设备在线率监控</text>
  
  <rect x="195" y="274" width="130" height="28" class="function-box"/>
  <text x="260" y="291" class="function-item">待办任务提醒</text>
  
  <rect x="195" y="307" width="130" height="28" class="function-box"/>
  <text x="260" y="324" class="function-item">紧急告警通知</text>

  <!-- 模块3: 合同管理 -->
  <rect x="340" y="145" width="140" height="190" class="module-box"/>
  <text x="410" y="165" class="module-title" text-anchor="middle">合同管理</text>
  
  <rect x="345" y="175" width="130" height="28" class="function-box"/>
  <text x="410" y="192" class="function-item">合同查询</text>
  
  <rect x="345" y="208" width="130" height="28" class="function-box"/>
  <text x="410" y="225" class="function-item">合同打印</text>
  
  <rect x="345" y="241" width="130" height="28" class="function-box"/>
  <text x="410" y="258" class="function-item">合同模版管理</text>
  
  <rect x="345" y="274" width="130" height="28" class="function-box"/>
  <text x="410" y="291" class="function-item">二维码生成打印</text>
  
  <rect x="345" y="307" width="130" height="28" class="function-box"/>
  <text x="410" y="324" class="function-item">扫码查询档案</text>

  <!-- ==================== 预防性维护 - 二级模块 ==================== -->
  
  <!-- 模块4: 点检管理 -->
  <rect x="510" y="145" width="140" height="290" class="module-box"/>
  <text x="580" y="165" class="module-title" text-anchor="middle">点检管理</text>
  
  <rect x="515" y="175" width="130" height="28" class="function-box"/>
  <text x="580" y="192" class="function-item">创建点检计划</text>
  
  <rect x="515" y="208" width="130" height="28" class="function-box"/>
  <text x="580" y="225" class="function-item">点检计划审批</text>
  
  <rect x="515" y="241" width="130" height="28" class="function-box"/>
  <text x="580" y="258" class="function-item">点检任务生成</text>
  
  <rect x="515" y="274" width="130" height="28" class="function-box"/>
  <text x="580" y="291" class="function-item">点检任务分配</text>
  
  <rect x="515" y="307" width="130" height="28" class="function-box"/>
  <text x="580" y="324" class="function-item">点检任务执行</text>
  
  <rect x="515" y="340" width="130" height="28" class="function-box"/>
  <text x="580" y="357" class="function-item">点检任务验收</text>
  
  <rect x="515" y="373" width="130" height="28" class="function-box"/>
  <text x="580" y="390" class="function-item">点检计划调整</text>
  
  <rect x="515" y="406" width="130" height="28" class="function-box"/>
  <text x="580" y="423" class="function-item">历史计划查询</text>

  <!-- 模块5: 保养管理 -->
  <rect x="660" y="145" width="140" height="290" class="module-box"/>
  <text x="730" y="165" class="module-title" text-anchor="middle">保养管理</text>
  
  <rect x="665" y="175" width="130" height="28" class="function-box"/>
  <text x="730" y="192" class="function-item">创建保养计划</text>
  
  <rect x="665" y="208" width="130" height="28" class="function-box"/>
  <text x="730" y="225" class="function-item">保养计划审批</text>
  
  <rect x="665" y="241" width="130" height="28" class="function-box"/>
  <text x="730" y="258" class="function-item">保养任务生成</text>
  
  <rect x="665" y="274" width="130" height="28" class="function-box"/>
  <text x="730" y="291" class="function-item">保养任务分配</text>
  
  <rect x="665" y="307" width="130" height="28" class="function-box"/>
  <text x="730" y="324" class="function-item">保养任务执行</text>
  
  <rect x="665" y="340" width="130" height="28" class="function-box"/>
  <text x="730" y="357" class="function-item">保养任务验收</text>
  
  <rect x="665" y="373" width="130" height="28" class="function-box"/>
  <text x="730" y="390" class="function-item">保养效果评估</text>
  
  <rect x="665" y="406" width="130" height="28" class="function-box"/>
  <text x="730" y="423" class="function-item">保养记录查询</text>

  <!-- 模块6: 任务看板 -->
  <rect x="810" y="145" width="140" height="157" class="module-box"/>
  <text x="880" y="165" class="module-title" text-anchor="middle">任务看板</text>
  
  <rect x="815" y="175" width="130" height="28" class="function-box"/>
  <text x="880" y="192" class="function-item">任务看板管理</text>
  
  <rect x="815" y="208" width="130" height="28" class="function-box"/>
  <text x="880" y="225" class="function-item">任务提醒通知</text>
  
  <rect x="815" y="241" width="130" height="28" class="function-box"/>
  <text x="880" y="258" class="function-item">移动端任务执行</text>
  
  <rect x="815" y="274" width="130" height="28" class="function-box"/>
  <text x="880" y="291" class="function-item">离线数据同步</text>

  <!-- ==================== 维修管理 - 二级模块 ==================== -->
  
  <!-- 模块7: 维修工单 -->
  <rect x="980" y="145" width="140" height="323" class="module-box"/>
  <text x="1050" y="165" class="module-title" text-anchor="middle">维修工单</text>
  
  <rect x="985" y="175" width="130" height="28" class="function-box"/>
  <text x="1050" y="192" class="function-item">创建维修工单</text>
  
  <rect x="985" y="208" width="130" height="28" class="function-box"/>
  <text x="1050" y="225" class="function-item">工单审批流程</text>
  
  <rect x="985" y="241" width="130" height="28" class="function-box"/>
  <text x="1050" y="258" class="function-item">工单派工管理</text>
  
  <rect x="985" y="274" width="130" height="28" class="function-box"/>
  <text x="1050" y="291" class="function-item">工单查询跟踪</text>
  
  <rect x="985" y="307" width="130" height="28" class="function-box"/>
  <text x="1050" y="324" class="function-item">工单进度更新</text>
  
  <rect x="985" y="340" width="130" height="28" class="function-box"/>
  <text x="1050" y="357" class="function-item">工单验收关闭</text>
  
  <rect x="985" y="373" width="130" height="28" class="function-box"/>
  <text x="1050" y="390" class="function-item">工单评价反馈</text>
  
  <rect x="985" y="406" width="130" height="28" class="function-box"/>
  <text x="1050" y="423" class="function-item">紧急工单处理</text>
  
  <rect x="985" y="439" width="130" height="28" class="function-box"/>
  <text x="1050" y="456" class="function-item">维修报告生成</text>

  <!-- 模块8: 备件管理 -->
  <rect x="1130" y="145" width="140" height="290" class="module-box"/>
  <text x="1200" y="165" class="module-title" text-anchor="middle">备件管理</text>
  
  <rect x="1135" y="175" width="130" height="28" class="function-box"/>
  <text x="1200" y="192" class="function-item">备件入库管理</text>
  
  <rect x="1135" y="208" width="130" height="28" class="function-box"/>
  <text x="1200" y="225" class="function-item">备件出库领用</text>
  
  <rect x="1135" y="241" width="130" height="28" class="function-box"/>
  <text x="1200" y="258" class="function-item">备件库存盘点</text>
  
  <rect x="1135" y="274" width="130" height="28" class="function-box"/>
  <text x="1200" y="291" class="function-item">备件库存预警</text>
  
  <rect x="1135" y="307" width="130" height="28" class="function-box"/>
  <text x="1200" y="324" class="function-item">备件采购申请</text>
  
  <rect x="1135" y="340" width="130" height="28" class="function-box"/>
  <text x="1200" y="357" class="function-item">备件使用记录</text>
  
  <rect x="1135" y="373" width="130" height="28" class="function-box"/>
  <text x="1200" y="390" class="function-item">备件消耗统计</text>
  
  <rect x="1135" y="406" width="130" height="28" class="function-box"/>
  <text x="1200" y="423" class="function-item">备件供应商管理</text>

  <!-- 模块9: 维修资源 -->
  <rect x="1280" y="145" width="140" height="125" class="module-box"/>
  <text x="1350" y="165" class="module-title" text-anchor="middle">维修资源</text>
  
  <rect x="1285" y="175" width="130" height="28" class="function-box"/>
  <text x="1350" y="192" class="function-item">维修SOP管理</text>
  
  <rect x="1285" y="208" width="130" height="28" class="function-box"/>
  <text x="1350" y="225" class="function-item">维修费用核算</text>
  
  <rect x="1285" y="241" width="130" height="28" class="function-box"/>
  <text x="1350" y="258" class="function-item">维修人员管理</text>

  <!-- ==================== 报表分析 - 二级模块 ==================== -->
  
  <!-- 模块10: 设备报表 -->
  <rect x="1450" y="145" width="140" height="223" class="module-box"/>
  <text x="1520" y="165" class="module-title" text-anchor="middle">设备报表</text>
  
  <rect x="1455" y="175" width="130" height="28" class="function-box"/>
  <text x="1520" y="192" class="function-item">设备健康度报表</text>
  
  <rect x="1455" y="208" width="130" height="28" class="function-box"/>
  <text x="1520" y="225" class="function-item">设备在线率报表</text>
  
  <rect x="1455" y="241" width="130" height="28" class="function-box"/>
  <text x="1520" y="258" class="function-item">设备故障统计</text>
  
  <rect x="1455" y="274" width="130" height="28" class="function-box"/>
  <text x="1520" y="291" class="function-item">设备运行分析</text>
  
  <rect x="1455" y="307" width="130" height="28" class="function-box"/>
  <text x="1520" y="324" class="function-item">设备寿命预测</text>

  <!-- 模块11: 维护报表 -->
  <rect x="1600" y="145" width="140" height="223" class="module-box"/>
  <text x="1670" y="165" class="module-title" text-anchor="middle">维护报表</text>
  
  <rect x="1605" y="175" width="130" height="28" class="function-box"/>
  <text x="1670" y="192" class="function-item">任务执行报表</text>
  
  <rect x="1605" y="208" width="130" height="28" class="function-box"/>
  <text x="1670" y="225" class="function-item">任务完成率统计</text>
  
  <rect x="1605" y="241" width="130" height="28" class="function-box"/>
  <text x="1670" y="258" class="function-item">维修成本分析</text>
  
  <rect x="1605" y="274" width="130" height="28" class="function-box"/>
  <text x="1670" y="291" class="function-item">备件消耗分析</text>
  
  <rect x="1605" y="307" width="130" height="28" class="function-box"/>
  <text x="1670" y="324" class="function-item">故障模式统计</text>

  <!-- 模块12: 绩效报表 -->
  <rect x="1750" y="145" width="140" height="223" class="module-box"/>
  <text x="1820" y="165" class="module-title" text-anchor="middle">绩效报表</text>
  
  <rect x="1755" y="175" width="130" height="28" class="function-box"/>
  <text x="1820" y="192" class="function-item">KPI绩效报表</text>
  
  <rect x="1755" y="208" width="130" height="28" class="function-box"/>
  <text x="1820" y="225" class="function-item">趋势对比分析</text>
  
  <rect x="1755" y="241" width="130" height="28" class="function-box"/>
  <text x="1820" y="258" class="function-item">自定义报表</text>
  
  <rect x="1755" y="274" width="130" height="28" class="function-box"/>
  <text x="1820" y="291" class="function-item">报表定时生成</text>
  
  <rect x="1755" y="307" width="130" height="28" class="function-box"/>
  <text x="1820" y="324" class="function-item">报表导出订阅</text>

  <!-- ==================== 基础数据 - 二级模块 ==================== -->
  
  <!-- 模块13: 基础数据 -->
  <rect x="1920" y="145" width="290" height="355" class="module-box"/>
  <text x="2065" y="165" class="module-title" text-anchor="middle">基础数据管理</text>
  
  <rect x="1925" y="175" width="130" height="28" class="function-box"/>
  <text x="1990" y="192" class="function-item">设备型号数据</text>
  
  <rect x="2075" y="175" width="130" height="28" class="function-box"/>
  <text x="2140" y="192" class="function-item">供应商数据</text>
  
  <rect x="1925" y="208" width="130" height="28" class="function-box"/>
  <text x="1990" y="225" class="function-item">人员组织数据</text>
  
  <rect x="2075" y="208" width="130" height="28" class="function-box"/>
  <text x="2140" y="225" class="function-item">权限角色管理</text>
  
  <rect x="1925" y="241" width="130" height="28" class="function-box"/>
  <text x="1990" y="258" class="function-item">系统配置管理</text>
  
  <rect x="2075" y="241" width="130" height="28" class="function-box"/>
  <text x="2140" y="258" class="function-item">数据字典管理</text>
  
  <rect x="1925" y="274" width="130" height="28" class="function-box"/>
  <text x="1990" y="291" class="function-item">操作日志管理</text>
  
  <rect x="2075" y="274" width="130" height="28" class="function-box"/>
  <text x="2140" y="291" class="function-item">数据备份恢复</text>
  
  <rect x="1925" y="307" width="130" height="28" class="function-box"/>
  <text x="1990" y="324" class="function-item">数据导入导出</text>
  
  <rect x="2075" y="307" width="130" height="28" class="function-box"/>
  <text x="2140" y="324" class="function-item">接口配置管理</text>

  <!-- ==================== 底部说明 ==================== -->
  <rect x="40" y="520" width="2320" height="100" fill="#f0f5ff" stroke="#1890ff" stroke-width="2" rx="10"/>
  <text x="1200" y="555" class="module-title" text-anchor="middle" fill="#1890ff" font-size="16px">三级功能架构说明</text>
  
  <text x="70" y="580" class="function-item" text-anchor="start" font-size="12px">• <tspan font-weight="bold">一级分类</tspan>（5个）：设备档案管理、预防性维护、维修管理、报表分析、基础数据 - 顶层业务领域</text>
  <text x="70" y="597" class="function-item" text-anchor="start" font-size="12px">• <tspan font-weight="bold">二级模块</tspan>（13个）：设备信息管理、点检管理、维修工单、备件管理等 - 具体业务模块</text>
  <text x="70" y="614" class="function-item" text-anchor="start" font-size="12px">• <tspan font-weight="bold">三级功能点</tspan>（80+个）：创建设备档案、工单派工管理、备件入库管理等 - 最小功能单元（每个代表一个可执行的具体操作）</text>

</svg>
