<svg xmlns="http://www.w3.org/2000/svg" viewBox="0 0 1600 1150">
  <defs>
    <style>
      .arch-title { font-size: 32px; font-weight: bold; fill: #722ed1; }
      .layer-title { font-size: 20px; font-weight: bold; fill: #fff; }
      .module-title { font-size: 15px; font-weight: bold; fill: #262626; }
      .feature-text { font-size: 12px; fill: #595959; }
      .layer-bg1 { fill: #722ed1; opacity: 0.9; }
      .layer-bg2 { fill: #1890ff; opacity: 0.9; }
      .layer-bg3 { fill: #fa8c16; opacity: 0.9; }
      .layer-bg4 { fill: #52c41a; opacity: 0.9; }
      .module-box { fill: #ffffff; stroke: #d9d9d9; stroke-width: 2; rx: 6; }
      .module-box-highlight { fill: #f9f0ff; stroke: #722ed1; stroke-width: 2; rx: 6; }
      .connector { stroke: #8c8c8c; stroke-width: 2; fill: none; stroke-dasharray: 5,5; }
    </style>
  </defs>

  <text x="800" y="50" class="arch-title" text-anchor="middle">智慧设备管理 - 功能架构图</text>

  <!-- 第一层：展示层 -->
  <rect x="50" y="90" width="1500" height="200" class="layer-bg1" rx="8"/>
  <text x="800" y="120" class="layer-title" text-anchor="middle">展示层 - 用户交互界面</text>

  <rect x="80" y="145" width="280" height="130" class="module-box-highlight"/>
  <text x="220" y="170" class="module-title" text-anchor="middle">设备健康总览</text>
  <text x="220" y="192" class="feature-text" text-anchor="middle">• KPI指标卡展示</text>
  <text x="220" y="210" class="feature-text" text-anchor="middle">• 设备状态分布图</text>
  <text x="220" y="228" class="feature-text" text-anchor="middle">• 待办任务列表</text>
  <text x="220" y="246" class="feature-text" text-anchor="middle">• 紧急告警通知</text>
  <text x="220" y="264" class="feature-text" text-anchor="middle">• 维修趋势图表</text>

  <rect x="390" y="145" width="280" height="130" class="module-box"/>
  <text x="530" y="170" class="module-title" text-anchor="middle">设备档案管理</text>
  <text x="530" y="192" class="feature-text" text-anchor="middle">• 设备台账列表</text>
  <text x="530" y="210" class="feature-text" text-anchor="middle">• 一机一档详情页</text>
  <text x="530" y="228" class="feature-text" text-anchor="middle">• 二维码生成打印</text>
  <text x="530" y="246" class="feature-text" text-anchor="middle">• 多维度筛选搜索</text>
  <text x="530" y="264" class="feature-text" text-anchor="middle">• AI风险评估展示</text>

  <rect x="700" y="145" width="280" height="130" class="module-box"/>
  <text x="840" y="170" class="module-title" text-anchor="middle">任务管理看板</text>
  <text x="840" y="192" class="feature-text" text-anchor="middle">• Kanban看板视图</text>
  <text x="840" y="210" class="feature-text" text-anchor="middle">• 点检/保养/检修任务</text>
  <text x="840" y="228" class="feature-text" text-anchor="middle">• 任务流转可视化</text>
  <text x="840" y="246" class="feature-text" text-anchor="middle">• 逾期任务高亮</text>
  <text x="840" y="264" class="feature-text" text-anchor="middle">• 移动端清单执行</text>

  <rect x="1010" y="145" width="270" height="130" class="module-box"/>
  <text x="1145" y="170" class="module-title" text-anchor="middle">维修工单管理</text>
  <text x="1145" y="192" class="feature-text" text-anchor="middle">• 工单看板</text>
  <text x="1145" y="210" class="feature-text" text-anchor="middle">• 一键报修</text>
  <text x="1145" y="228" class="feature-text" text-anchor="middle">• 进度跟踪</text>
  <text x="1145" y="246" class="feature-text" text-anchor="middle">• 费用管理</text>
  <text x="1145" y="264" class="feature-text" text-anchor="middle">• 维修报告</text>

  <rect x="1310" y="145" width="220" height="130" class="module-box"/>
  <text x="1420" y="170" class="module-title" text-anchor="middle">备件库存</text>
  <text x="1420" y="192" class="feature-text" text-anchor="middle">• 库存监控</text>
  <text x="1420" y="210" class="feature-text" text-anchor="middle">• 出入库</text>
  <text x="1420" y="228" class="feature-text" text-anchor="middle">• 预警提示</text>
  <text x="1420" y="246" class="feature-text" text-anchor="middle">• 统计分析</text>
  <text x="1420" y="264" class="feature-text" text-anchor="middle">• 盘点管理</text>

  <!-- 第二层：业务层 -->
  <rect x="50" y="320" width="1500" height="230" class="layer-bg2" rx="8"/>
  <text x="800" y="350" class="layer-title" text-anchor="middle">业务层 - 核心业务逻辑</text>

  <rect x="80" y="375" width="350" height="160" class="module-box"/>
  <text x="255" y="400" class="module-title" text-anchor="middle">预防性维护管理</text>
  <text x="100" y="425" class="feature-text" text-anchor="start">• 点检计划制定与审批</text>
  <text x="100" y="443" class="feature-text" text-anchor="start">• 保养计划制定与审批</text>
  <text x="100" y="461" class="feature-text" text-anchor="start">• 检修计划制定与审批</text>
  <text x="100" y="479" class="feature-text" text-anchor="start">• 任务自动生成（周期触发）</text>
  <text x="100" y="497" class="feature-text" text-anchor="start">• 任务派发与接收</text>
  <text x="100" y="515" class="feature-text" text-anchor="start">• 执行记录与验收流程</text>

  <rect x="460" y="375" width="350" height="160" class="module-box"/>
  <text x="635" y="400" class="module-title" text-anchor="middle">维修管理</text>
  <text x="480" y="425" class="feature-text" text-anchor="start">• 故障报修工单创建</text>
  <text x="480" y="443" class="feature-text" text-anchor="start">• 工单优先级判定</text>
  <text x="480" y="461" class="feature-text" text-anchor="start">• 维修人员派工</text>
  <text x="480" y="479" class="feature-text" text-anchor="start">• 维修标准SOP关联</text>
  <text x="480" y="497" class="feature-text" text-anchor="start">• 备件领用与费用核算</text>
  <text x="480" y="515" class="feature-text" text-anchor="start">• 维修报告自动生成</text>

  <rect x="840" y="375" width="350" height="160" class="module-box"/>
  <text x="1015" y="400" class="module-title" text-anchor="middle">备件管理</text>
  <text x="860" y="425" class="feature-text" text-anchor="start">• 备件入库/出库/盘点</text>
  <text x="860" y="443" class="feature-text" text-anchor="start">• 安全库存预警（低库存/库龄）</text>
  <text x="860" y="461" class="feature-text" text-anchor="start">• 关联设备查询</text>
  <text x="860" y="479" class="feature-text" text-anchor="start">• 使用历史追溯</text>
  <text x="860" y="497" class="feature-text" text-anchor="start">• 消耗统计与周转率分析</text>
  <text x="860" y="515" class="feature-text" text-anchor="start">• 采购建议智能生成</text>

  <rect x="1220" y="375" width="310" height="160" class="module-box"/>
  <text x="1375" y="400" class="module-title" text-anchor="middle">设备档案管理</text>
  <text x="1240" y="425" class="feature-text" text-anchor="start">• 设备全生命周期追溯</text>
  <text x="1240" y="443" class="feature-text" text-anchor="start">• 点检/保养/检修记录</text>
  <text x="1240" y="461" class="feature-text" text-anchor="start">• 维修历史查询</text>
  <text x="1240" y="479" class="feature-text" text-anchor="start">• 关联备件管理</text>
  <text x="1240" y="497" class="feature-text" text-anchor="start">• 二维码扫码交互</text>
  <text x="1240" y="515" class="feature-text" text-anchor="start">• AI老化风险预警</text>

  <!-- 第三层：数据层 -->
  <rect x="50" y="580" width="1500" height="200" class="layer-bg3" rx="8"/>
  <text x="800" y="610" class="layer-title" text-anchor="middle">数据层 - 数据处理与存储</text>

  <rect x="80" y="635" width="280" height="130" class="module-box"/>
  <text x="220" y="660" class="module-title" text-anchor="middle">数据采集</text>
  <text x="220" y="682" class="feature-text" text-anchor="middle">• 设备档案数据</text>
  <text x="220" y="700" class="feature-text" text-anchor="middle">• 任务执行数据</text>
  <text x="220" y="718" class="feature-text" text-anchor="middle">• 维修工单数据</text>
  <text x="220" y="736" class="feature-text" text-anchor="middle">• 备件流水数据</text>
  <text x="220" y="754" class="feature-text" text-anchor="middle">• 移动端上传数据</text>

  <rect x="390" y="635" width="280" height="130" class="module-box"/>
  <text x="530" y="660" class="module-title" text-anchor="middle">数据处理</text>
  <text x="530" y="682" class="feature-text" text-anchor="middle">• 任务状态自动更新</text>
  <text x="530" y="700" class="feature-text" text-anchor="middle">• 完成率自动计算</text>
  <text x="530" y="718" class="feature-text" text-anchor="middle">• 费用自动汇总</text>
  <text x="530" y="736" class="feature-text" text-anchor="middle">• 预警规则引擎</text>
  <text x="530" y="754" class="feature-text" text-anchor="middle">• 报表自动生成</text>

  <rect x="700" y="635" width="280" height="130" class="module-box"/>
  <text x="840" y="660" class="module-title" text-anchor="middle">数据存储</text>
  <text x="840" y="682" class="feature-text" text-anchor="middle">• 设备档案库</text>
  <text x="840" y="700" class="feature-text" text-anchor="middle">• 任务记录库</text>
  <text x="840" y="718" class="feature-text" text-anchor="middle">• 维修历史库</text>
  <text x="840" y="736" class="feature-text" text-anchor="middle">• 备件库存库</text>
  <text x="840" y="754" class="feature-text" text-anchor="middle">• 文件对象存储</text>

  <rect x="1010" y="635" width="280" height="130" class="module-box"/>
  <text x="1150" y="660" class="module-title" text-anchor="middle">智能分析</text>
  <text x="1150" y="682" class="feature-text" text-anchor="middle">• 设备健康度分析</text>
  <text x="1150" y="700" class="feature-text" text-anchor="middle">• 故障模式识别</text>
  <text x="1150" y="718" class="feature-text" text-anchor="middle">• 老化风险预测</text>
  <text x="1150" y="736" class="feature-text" text-anchor="middle">• 备件消耗预测</text>
  <text x="1150" y="754" class="feature-text" text-anchor="middle">• 优化建议生成</text>

  <rect x="1320" y="635" width="210" height="130" class="module-box"/>
  <text x="1425" y="660" class="module-title" text-anchor="middle">数据服务</text>
  <text x="1425" y="682" class="feature-text" text-anchor="middle">• RESTful API</text>
  <text x="1425" y="700" class="feature-text" text-anchor="middle">• 消息推送</text>
  <text x="1425" y="718" class="feature-text" text-anchor="middle">• 数据导出</text>
  <text x="1425" y="736" class="feature-text" text-anchor="middle">• 权限控制</text>
  <text x="1425" y="754" class="feature-text" text-anchor="middle">• 移动端接口</text>

  <!-- 第四层：设备与工具层 -->
  <rect x="50" y="810" width="1500" height="160" class="layer-bg4" rx="8"/>
  <text x="800" y="840" class="layer-title" text-anchor="middle">设备与工具层 - 感知与执行</text>

  <rect x="80" y="865" width="230" height="90" class="module-box"/>
  <text x="195" y="890" class="module-title" text-anchor="middle">监控设备</text>
  <text x="195" y="910" class="feature-text" text-anchor="middle">设备传感器</text>
  <text x="195" y="928" class="feature-text" text-anchor="middle">状态监测</text>
  <text x="195" y="946" class="feature-text" text-anchor="middle">数据采集器</text>

  <rect x="340" y="865" width="230" height="90" class="module-box"/>
  <text x="455" y="890" class="module-title" text-anchor="middle">移动端工具</text>
  <text x="455" y="910" class="feature-text" text-anchor="middle">扫码枪</text>
  <text x="455" y="928" class="feature-text" text-anchor="middle">移动APP/平板</text>
  <text x="455" y="946" class="feature-text" text-anchor="middle">现场拍照/录音</text>

  <rect x="600" y="865" width="230" height="90" class="module-box"/>
  <text x="715" y="890" class="module-title" text-anchor="middle">识别设备</text>
  <text x="715" y="910" class="feature-text" text-anchor="middle">二维码标签</text>
  <text x="715" y="928" class="feature-text" text-anchor="middle">RFID标签</text>
  <text x="715" y="946" class="feature-text" text-anchor="middle">条码打印机</text>

  <rect x="860" y="865" width="230" height="90" class="module-box"/>
  <text x="975" y="890" class="module-title" text-anchor="middle">维修工具</text>
  <text x="975" y="910" class="feature-text" text-anchor="middle">检测仪器</text>
  <text x="975" y="928" class="feature-text" text-anchor="middle">维修工具包</text>
  <text x="975" y="946" class="feature-text" text-anchor="middle">备件仓库系统</text>

  <rect x="1120" y="865" width="180" height="90" class="module-box"/>
  <text x="1210" y="890" class="module-title" text-anchor="middle">通信网络</text>
  <text x="1210" y="910" class="feature-text" text-anchor="middle">WiFi/5G</text>
  <text x="1210" y="928" class="feature-text" text-anchor="middle">工业以太网</text>
  <text x="1210" y="946" class="feature-text" text-anchor="middle">蓝牙</text>

  <rect x="1330" y="865" width="200" height="90" class="module-box"/>
  <text x="1430" y="890" class="module-title" text-anchor="middle">集成系统</text>
  <text x="1430" y="910" class="feature-text" text-anchor="middle">ERP系统</text>
  <text x="1430" y="928" class="feature-text" text-anchor="middle">采购系统</text>
  <text x="1430" y="946" class="feature-text" text-anchor="middle">财务系统</text>

  <!-- 连接线 -->
  <path d="M 800 290 L 800 320" class="connector"/>
  <path d="M 800 550 L 800 580" class="connector"/>
  <path d="M 800 780 L 800 810" class="connector"/>

  <!-- 底部说明 -->
  <rect x="50" y="1000" width="1500" height="120" fill="#fafafa" stroke="#d9d9d9" stroke-width="2" rx="8"/>
  <text x="800" y="1030" class="module-title" text-anchor="middle" font-size="18">核心技术特点</text>
  
  <text x="120" y="1055" class="feature-text" text-anchor="start" font-weight="bold">🔹 全生命周期：</text>
  <text x="280" y="1055" class="feature-text" text-anchor="start">从采购入库到报废全程数字化追溯</text>
  
  <text x="120" y="1075" class="feature-text" text-anchor="start" font-weight="bold">🔹 预防性维护：</text>
  <text x="280" y="1075" class="feature-text" text-anchor="start">计划化点检/保养/检修，降低故障率</text>
  
  <text x="120" y="1095" class="feature-text" text-anchor="start" font-weight="bold">🔹 移动化操作：</text>
  <text x="280" y="1095" class="feature-text" text-anchor="start">扫码查档案，现场执行任务，即时上传</text>

  <text x="800" y="1055" class="feature-text" text-anchor="start" font-weight="bold">🔹 看板式管理：</text>
  <text x="960" y="1055" class="feature-text" text-anchor="start">Kanban可视化任务流转，进度一目了然</text>
  
  <text x="800" y="1075" class="feature-text" text-anchor="start" font-weight="bold">🔹 智能预警：</text>
  <text x="960" y="1075" class="feature-text" text-anchor="start">AI风险评估、备件库存预警、逾期提醒</text>
  
  <text x="800" y="1095" class="feature-text" text-anchor="start" font-weight="bold">🔹 闭环管理：</text>
  <text x="960" y="1095" class="feature-text" text-anchor="start">从计划到执行到验收的完整业务闭环</text>

</svg>