<svg xmlns="http://www.w3.org/2000/svg" viewBox="0 0 2400 900">
  <defs>
    <style>
      .arch-title { font-size: 28px; font-weight: bold; fill: #fff; }
      .category-title { font-size: 16px; font-weight: bold; fill: #fff; }
      .module-title { font-size: 14px; font-weight: bold; fill: #1890ff; }
      .function-item { font-size: 11px; fill: #262626; text-anchor: middle; }
      .function-box { fill: #ffffff; stroke: #d9d9d9; stroke-width: 1.5; rx: 4; }
      .module-box { fill: #e6f7ff; stroke: #1890ff; stroke-width: 2; rx: 8; }
      .header-bg { fill: #1890ff; }
      .category-bg1 { fill: #1890ff; opacity: 0.9; }
      .category-bg2 { fill: #52c41a; opacity: 0.9; }
      .category-bg3 { fill: #fa8c16; opacity: 0.9; }
      .category-bg4 { fill: #722ed1; opacity: 0.9; }
      .category-bg5 { fill: #13c2c2; opacity: 0.9; }
    </style>
  </defs>

  <!-- 顶部标题栏 -->
  <rect x="0" y="0" width="2400" height="60" class="header-bg" rx="0"/>
  <text x="1200" y="40" class="arch-title" text-anchor="middle">智能生产协同系统 - 三级功能架构</text>

  <!-- ==================== 一级分类 ==================== -->
  
  <!-- 1. 数字孪生 -->
  <rect x="30" y="80" width="450" height="45" class="category-bg1" rx="8"/>
  <text x="255" y="108" class="category-title" text-anchor="middle">数字孪生</text>
  
  <!-- 2. 生产调度 -->
  <rect x="500" y="80" width="450" height="45" class="category-bg2" rx="8"/>
  <text x="725" y="108" class="category-title" text-anchor="middle">生产调度</text>
  
  <!-- 3. 远程管控 -->
  <rect x="970" y="80" width="450" height="45" class="category-bg3" rx="8"/>
  <text x="1195" y="108" class="category-title" text-anchor="middle">远程管控</text>
  
  <!-- 4. 车辆管理 -->
  <rect x="1440" y="80" width="450" height="45" class="category-bg4" rx="8"/>
  <text x="1665" y="108" class="category-title" text-anchor="middle">车辆管理</text>
  
  <!-- 5. 资源管理 -->
  <rect x="1910" y="80" width="450" height="45" class="category-bg5" rx="8"/>
  <text x="2135" y="108" class="category-title" text-anchor="middle">资源管理</text>

  <!-- ==================== 数字孪生 - 二级模块 ==================== -->
  
  <!-- 模块1: 三维地图 -->
  <rect x="40" y="145" width="140" height="257" class="module-box"/>
  <text x="110" y="165" class="module-title" text-anchor="middle">三维地图</text>
  
  <rect x="45" y="175" width="130" height="28" class="function-box"/>
  <text x="110" y="192" class="function-item">三维场景展示</text>
  
  <rect x="45" y="208" width="130" height="28" class="function-box"/>
  <text x="110" y="225" class="function-item">图层控制管理</text>
  
  <rect x="45" y="241" width="130" height="28" class="function-box"/>
  <text x="110" y="258" class="function-item">视角切换控制</text>
  
  <rect x="45" y="274" width="130" height="28" class="function-box"/>
  <text x="110" y="291" class="function-item">地图标注管理</text>
  
  <rect x="45" y="307" width="130" height="28" class="function-box"/>
  <text x="110" y="324" class="function-item">测量工具</text>
  
  <rect x="45" y="340" width="130" height="28" class="function-box"/>
  <text x="110" y="357" class="function-item">场景漫游</text>
  
  <rect x="45" y="373" width="130" height="28" class="function-box"/>
  <text x="110" y="390" class="function-item">地图配置管理</text>

  <!-- 模块2: 实时监控 -->
  <rect x="190" y="145" width="140" height="290" class="module-box"/>
  <text x="260" y="165" class="module-title" text-anchor="middle">实时监控</text>
  
  <rect x="195" y="175" width="130" height="28" class="function-box"/>
  <text x="260" y="192" class="function-item">设备实时定位</text>
  
  <rect x="195" y="208" width="130" height="28" class="function-box"/>
  <text x="260" y="225" class="function-item">车辆实时轨迹</text>
  
  <rect x="195" y="241" width="130" height="28" class="function-box"/>
  <text x="260" y="258" class="function-item">人员实时位置</text>
  
  <rect x="195" y="274" width="130" height="28" class="function-box"/>
  <text x="260" y="291" class="function-item">生产数据标注</text>
  
  <rect x="195" y="307" width="130" height="28" class="function-box"/>
  <text x="260" y="324" class="function-item">历史轨迹回放</text>
  
  <rect x="195" y="340" width="130" height="28" class="function-box"/>
  <text x="260" y="357" class="function-item">视频监控融合</text>
  
  <rect x="195" y="373" width="130" height="28" class="function-box"/>
  <text x="260" y="390" class="function-item">报警一致性展示</text>
  
  <rect x="195" y="406" width="130" height="28" class="function-box"/>
  <text x="260" y="423" class="function-item">实时态势大屏</text>

  <!-- 模块3: 数据分析 -->
  <rect x="340" y="145" width="140" height="190" class="module-box"/>
  <text x="410" y="165" class="module-title" text-anchor="middle">数据分析</text>
  
  <rect x="345" y="175" width="130" height="28" class="function-box"/>
  <text x="410" y="192" class="function-item">生产效率分析</text>
  
  <rect x="345" y="208" width="130" height="28" class="function-box"/>
  <text x="410" y="225" class="function-item">设备利用率分析</text>
  
  <rect x="345" y="241" width="130" height="28" class="function-box"/>
  <text x="410" y="258" class="function-item">区域热力图</text>
  
  <rect x="345" y="274" width="130" height="28" class="function-box"/>
  <text x="410" y="291" class="function-item">路径优化分析</text>
  
  <rect x="345" y="307" width="130" height="28" class="function-box"/>
  <text x="410" y="324" class="function-item">异常数据分析</text>

  <!-- ==================== 生产调度 - 二级模块 ==================== -->
  
  <!-- 模块4: 调度指挥 -->
  <rect x="510" y="145" width="140" height="290" class="module-box"/>
  <text x="580" y="165" class="module-title" text-anchor="middle">调度指挥</text>
  
  <rect x="515" y="175" width="130" height="28" class="function-box"/>
  <text x="580" y="192" class="function-item">生产任务下达</text>
  
  <rect x="515" y="208" width="130" height="28" class="function-box"/>
  <text x="580" y="225" class="function-item">任务动态调整</text>
  
  <rect x="515" y="241" width="130" height="28" class="function-box"/>
  <text x="580" y="258" class="function-item">资源智能调度</text>
  
  <rect x="515" y="274" width="130" height="28" class="function-box"/>
  <text x="580" y="291" class="function-item">调度指令管理</text>
  
  <rect x="515" y="307" width="130" height="28" class="function-box"/>
  <text x="580" y="324" class="function-item">调度日志记录</text>
  
  <rect x="515" y="340" width="130" height="28" class="function-box"/>
  <text x="580" y="357" class="function-item">交接班管理</text>
  
  <rect x="515" y="373" width="130" height="28" class="function-box"/>
  <text x="580" y="390" class="function-item">应急事件响应</text>
  
  <rect x="515" y="406" width="130" height="28" class="function-box"/>
  <text x="580" y="423" class="function-item">调度工作台</text>

  <!-- 模块5: 生产监控 -->
  <rect x="660" y="145" width="140" height="257" class="module-box"/>
  <text x="730" y="165" class="module-title" text-anchor="middle">生产监控</text>
  
  <rect x="665" y="175" width="130" height="28" class="function-box"/>
  <text x="730" y="192" class="function-item">生产实时面板</text>
  
  <rect x="665" y="208" width="130" height="28" class="function-box"/>
  <text x="730" y="225" class="function-item">设备状态监控</text>
  
  <rect x="665" y="241" width="130" height="28" class="function-box"/>
  <text x="730" y="258" class="function-item">产量进度监控</text>
  
  <rect x="665" y="274" width="130" height="28" class="function-box"/>
  <text x="730" y="291" class="function-item">异常事件监控</text>
  
  <rect x="665" y="307" width="130" height="28" class="function-box"/>
  <text x="730" y="324" class="function-item">生产KPI看板</text>
  
  <rect x="665" y="340" width="130" height="28" class="function-box"/>
  <text x="730" y="357" class="function-item">生产报表生成</text>
  
  <rect x="665" y="373" width="130" height="28" class="function-box"/>
  <text x="730" y="390" class="function-item">趋势预测分析</text>

  <!-- 模块6: 班组管理 -->
  <rect x="810" y="145" width="140" height="190" class="module-box"/>
  <text x="880" y="165" class="module-title" text-anchor="middle">班组管理</text>
  
  <rect x="815" y="175" width="130" height="28" class="function-box"/>
  <text x="880" y="192" class="function-item">排班日历管理</text>
  
  <rect x="815" y="208" width="130" height="28" class="function-box"/>
  <text x="880" y="225" class="function-item">智能排班</text>
  
  <rect x="815" y="241" width="130" height="28" class="function-box"/>
  <text x="880" y="258" class="function-item">值班人员信息</text>
  
  <rect x="815" y="274" width="130" height="28" class="function-box"/>
  <text x="880" y="291" class="function-item">考勤统计</text>
  
  <rect x="815" y="307" width="130" height="28" class="function-box"/>
  <text x="880" y="324" class="function-item">应急联系人</text>

  <!-- ==================== 远程管控 - 二级模块 ==================== -->
  
  <!-- 模块7: 远程集控 -->
  <rect x="980" y="145" width="140" height="257" class="module-box"/>
  <text x="1050" y="165" class="module-title" text-anchor="middle">远程集控</text>
  
  <rect x="985" y="175" width="130" height="28" class="function-box"/>
  <text x="1050" y="192" class="function-item">地面系统集控</text>
  
  <rect x="985" y="208" width="130" height="28" class="function-box"/>
  <text x="1050" y="225" class="function-item">设备远程启停</text>
  
  <rect x="985" y="241" width="130" height="28" class="function-box"/>
  <text x="1050" y="258" class="function-item">参数远程调整</text>
  
  <rect x="985" y="274" width="130" height="28" class="function-box"/>
  <text x="1050" y="291" class="function-item">设备状态监测</text>
  
  <rect x="985" y="307" width="130" height="28" class="function-box"/>
  <text x="1050" y="324" class="function-item">故障预警处理</text>
  
  <rect x="985" y="340" width="130" height="28" class="function-box"/>
  <text x="1050" y="357" class="function-item">操作日志记录</text>
  
  <rect x="985" y="373" width="130" height="28" class="function-box"/>
  <text x="1050" y="390" class="function-item">控制权限管理</text>

  <!-- 模块8: 无人驾驶 -->
  <rect x="1130" y="145" width="140" height="223" class="module-box"/>
  <text x="1200" y="165" class="module-title" text-anchor="middle">无人驾驶</text>
  
  <rect x="1135" y="175" width="130" height="28" class="function-box"/>
  <text x="1200" y="192" class="function-item">车辆任务分配</text>
  
  <rect x="1135" y="208" width="130" height="28" class="function-box"/>
  <text x="1200" y="225" class="function-item">路径规划管理</text>
  
  <rect x="1135" y="241" width="130" height="28" class="function-box"/>
  <text x="1200" y="258" class="function-item">运行状态监控</text>
  
  <rect x="1135" y="274" width="130" height="28" class="function-box"/>
  <text x="1200" y="291" class="function-item">远程接管控制</text>
  
  <rect x="1135" y="307" width="130" height="28" class="function-box"/>
  <text x="1200" y="324" class="function-item">异常处理</text>
  
  <rect x="1135" y="340" width="130" height="28" class="function-box"/>
  <text x="1200" y="357" class="function-item">运输效率统计</text>

  <!-- 模块9: 智能设备 -->
  <rect x="1280" y="145" width="140" height="190" class="module-box"/>
  <text x="1350" y="165" class="module-title" text-anchor="middle">智能设备</text>
  
  <rect x="1285" y="175" width="130" height="28" class="function-box"/>
  <text x="1350" y="192" class="function-item">挖掘机远程操控</text>
  
  <rect x="1285" y="208" width="130" height="28" class="function-box"/>
  <text x="1350" y="225" class="function-item">巡检机器人管理</text>
  
  <rect x="1285" y="241" width="130" height="28" class="function-box"/>
  <text x="1350" y="258" class="function-item">视频AI分析</text>
  
  <rect x="1285" y="274" width="130" height="28" class="function-box"/>
  <text x="1350" y="291" class="function-item">设备协同控制</text>
  
  <rect x="1285" y="307" width="130" height="28" class="function-box"/>
  <text x="1350" y="324" class="function-item">作业数据采集</text>

  <!-- ==================== 车辆管理 - 二级模块 ==================== -->
  
  <!-- 模块10: 车辆档案 -->
  <rect x="1450" y="145" width="140" height="223" class="module-box"/>
  <text x="1520" y="165" class="module-title" text-anchor="middle">车辆档案</text>
  
  <rect x="1455" y="175" width="130" height="28" class="function-box"/>
  <text x="1520" y="192" class="function-item">车辆信息管理</text>
  
  <rect x="1455" y="208" width="130" height="28" class="function-box"/>
  <text x="1520" y="225" class="function-item">维保记录管理</text>
  
  <rect x="1455" y="241" width="130" height="28" class="function-box"/>
  <text x="1520" y="258" class="function-item">车辆状态管理</text>
  
  <rect x="1455" y="274" width="130" height="28" class="function-box"/>
  <text x="1520" y="291" class="function-item">车辆分类管理</text>
  
  <rect x="1455" y="307" width="130" height="28" class="function-box"/>
  <text x="1520" y="324" class="function-item">车辆报废管理</text>
  
  <rect x="1455" y="340" width="130" height="28" class="function-box"/>
  <text x="1520" y="357" class="function-item">车辆证件管理</text>

  <!-- 模块11: 车辆监控 -->
  <rect x="1600" y="145" width="140" height="257" class="module-box"/>
  <text x="1670" y="165" class="module-title" text-anchor="middle">车辆监控</text>
  
  <rect x="1605" y="175" width="130" height="28" class="function-box"/>
  <text x="1670" y="192" class="function-item">实时位置监控</text>
  
  <rect x="1605" y="208" width="130" height="28" class="function-box"/>
  <text x="1670" y="225" class="function-item">轨迹回放查询</text>
  
  <rect x="1605" y="241" width="130" height="28" class="function-box"/>
  <text x="1670" y="258" class="function-item">电子围栏管理</text>
  
  <rect x="1605" y="274" width="130" height="28" class="function-box"/>
  <text x="1670" y="291" class="function-item">越界报警处理</text>
  
  <rect x="1605" y="307" width="130" height="28" class="function-box"/>
  <text x="1670" y="324" class="function-item">视频对讲调度</text>
  
  <rect x="1605" y="340" width="130" height="28" class="function-box"/>
  <text x="1670" y="357" class="function-item">车辆统计分析</text>
  
  <rect x="1605" y="373" width="130" height="28" class="function-box"/>
  <text x="1670" y="390" class="function-item">行车记录查询</text>

  <!-- 模块12: 车辆调度 -->
  <rect x="1750" y="145" width="140" height="157" class="module-box"/>
  <text x="1820" y="165" class="module-title" text-anchor="middle">车辆调度</text>
  
  <rect x="1755" y="175" width="130" height="28" class="function-box"/>
  <text x="1820" y="192" class="function-item">运输任务分配</text>
  
  <rect x="1755" y="208" width="130" height="28" class="function-box"/>
  <text x="1820" y="225" class="function-item">车辆调度优化</text>
  
  <rect x="1755" y="241" width="130" height="28" class="function-box"/>
  <text x="1820" y="258" class="function-item">调度指令下达</text>
  
  <rect x="1755" y="274" width="130" height="28" class="function-box"/>
  <text x="1820" y="291" class="function-item">调度效率分析</text>

  <!-- ==================== 资源管理 - 二级模块 ==================== -->
  
  <!-- 模块13: 能耗管理 -->
  <rect x="1920" y="145" width="200" height="257" class="module-box"/>
  <text x="2020" y="165" class="module-title" text-anchor="middle">能耗管理</text>
  
  <rect x="1925" y="175" width="90" height="28" class="function-box"/>
  <text x="1970" y="192" class="function-item">能耗实时监控</text>
  
  <rect x="2025" y="175" width="90" height="28" class="function-box"/>
  <text x="2070" y="192" class="function-item">能耗统计分析</text>
  
  <rect x="1925" y="208" width="90" height="28" class="function-box"/>
  <text x="1970" y="225" class="function-item">分区域能耗</text>
  
  <rect x="2025" y="208" width="90" height="28" class="function-box"/>
  <text x="2070" y="225" class="function-item">分设备能耗</text>
  
  <rect x="1925" y="241" width="90" height="28" class="function-box"/>
  <text x="1970" y="258" class="function-item">能源流向分析</text>
  
  <rect x="2025" y="241" width="90" height="28" class="function-box"/>
  <text x="2070" y="258" class="function-item">能耗对比分析</text>
  
  <rect x="1925" y="274" width="90" height="28" class="function-box"/>
  <text x="1970" y="291" class="function-item">节能优化建议</text>
  
  <rect x="2025" y="274" width="90" height="28" class="function-box"/>
  <text x="2070" y="291" class="function-item">能耗报表生成</text>
  
  <rect x="1925" y="307" width="90" height="28" class="function-box"/>
  <text x="1970" y="324" class="function-item">能耗预警管理</text>
  
  <rect x="2025" y="307" width="90" height="28" class="function-box"/>
  <text x="2070" y="324" class="function-item">碳排放管理</text>

  <!-- 模块14: 预警管理 -->
  <rect x="2140" y="145" width="200" height="190" class="module-box"/>
  <text x="2240" y="165" class="module-title" text-anchor="middle">预警管理</text>
  
  <rect x="2145" y="175" width="90" height="28" class="function-box"/>
  <text x="2190" y="192" class="function-item">预警规则配置</text>
  
  <rect x="2245" y="175" width="90" height="28" class="function-box"/>
  <text x="2290" y="192" class="function-item">多级预警推送</text>
  
  <rect x="2145" y="208" width="90" height="28" class="function-box"/>
  <text x="2190" y="225" class="function-item">应急预案触发</text>
  
  <rect x="2245" y="208" width="90" height="28" class="function-box"/>
  <text x="2290" y="225" class="function-item">预警记录查询</text>
  
  <rect x="2145" y="241" width="90" height="28" class="function-box"/>
  <text x="2190" y="258" class="function-item">预警统计分析</text>
  
  <rect x="2245" y="241" width="90" height="28" class="function-box"/>
  <text x="2290" y="258" class="function-item">预警闭环管理</text>

  <!-- ==================== 底部说明 ==================== -->
  <rect x="40" y="420" width="2320" height="100" fill="#e6f7ff" stroke="#1890ff" stroke-width="2" rx="10"/>
  <text x="1200" y="455" class="module-title" text-anchor="middle" fill="#1890ff" font-size="16px">三级功能架构说明</text>
  
  <text x="70" y="480" class="function-item" text-anchor="start" font-size="12px">• <tspan font-weight="bold">一级分类</tspan>（5个）：数字孪生、生产调度、远程管控、车辆管理、资源管理 - 智能生产全要素管理</text>
  <text x="70" y="497" class="function-item" text-anchor="start" font-size="12px">• <tspan font-weight="bold">二级模块</tspan>（14个）：三维地图、调度指挥、远程集控、车辆档案、能耗管理等 - 具体业务模块</text>
  <text x="70" y="514" class="function-item" text-anchor="start" font-size="12px">• <tspan font-weight="bold">三级功能点</tspan>（80+个）：三维场景展示、生产任务下达、车辆任务分配等 - 最小功能单元（每个代表一个可执行的具体操作）</text>

</svg>
