<svg xmlns="http://www.w3.org/2000/svg" viewBox="0 0 2100 800">
  <defs>
    <style>
      .arch-title { font-size: 28px; font-weight: bold; fill: #fff; }
      .category-title { font-size: 16px; font-weight: bold; fill: #fff; }
      .module-title { font-size: 14px; font-weight: bold; fill: #52c41a; }
      .function-item { font-size: 11px; fill: #262626; text-anchor: middle; }
      .function-box { fill: #ffffff; stroke: #d9d9d9; stroke-width: 1.5; rx: 4; }
      .module-box { fill: #f6ffed; stroke: #52c41a; stroke-width: 2; rx: 8; }
      .header-bg { fill: #52c41a; }
      .category-bg1 { fill: #52c41a; opacity: 0.9; }
      .category-bg2 { fill: #1890ff; opacity: 0.9; }
      .category-bg3 { fill: #fa8c16; opacity: 0.9; }
      .category-bg4 { fill: #722ed1; opacity: 0.9; }
    </style>
  </defs>

  <!-- 顶部标题栏 -->
  <rect x="0" y="0" width="2100" height="60" class="header-bg" rx="0"/>
  <text x="1050" y="40" class="arch-title" text-anchor="middle">综合环境监测系统 - 三级功能架构</text>

  <!-- ==================== 一级分类 ==================== -->
  
  <!-- 1. 环境监测 -->
  <rect x="30" y="80" width="500" height="45" class="category-bg1" rx="8"/>
  <text x="280" y="108" class="category-title" text-anchor="middle">环境监测</text>
  
  <!-- 2. 合规管理 -->
  <rect x="550" y="80" width="500" height="45" class="category-bg2" rx="8"/>
  <text x="800" y="108" class="category-title" text-anchor="middle">合规管理</text>
  
  <!-- 3. 绿色矿山 -->
  <rect x="1070" y="80" width="500" height="45" class="category-bg3" rx="8"/>
  <text x="1320" y="108" class="category-title" text-anchor="middle">绿色矿山</text>
  
  <!-- 4. 基础数据 -->
  <rect x="1590" y="80" width="480" height="45" class="category-bg4" rx="8"/>
  <text x="1830" y="108" class="category-title" text-anchor="middle">基础数据</text>

  <!-- ==================== 环境监测 - 二级模块 ==================== -->
  
  <!-- 模块1: 水务监控 -->
  <rect x="40" y="145" width="140" height="223" class="module-box"/>
  <text x="110" y="165" class="module-title" text-anchor="middle">水务监控</text>
  
  <rect x="45" y="175" width="130" height="28" class="function-box"/>
  <text x="110" y="192" class="function-item">水泵状态监控</text>
  
  <rect x="45" y="208" width="130" height="28" class="function-box"/>
  <text x="110" y="225" class="function-item">管道压力监测</text>
  
  <rect x="45" y="241" width="130" height="28" class="function-box"/>
  <text x="110" y="258" class="function-item">液位流量监测</text>
  
  <rect x="45" y="274" width="130" height="28" class="function-box"/>
  <text x="110" y="291" class="function-item">历史数据查询</text>
  
  <rect x="45" y="307" width="130" height="28" class="function-box"/>
  <text x="110" y="324" class="function-item">曲线分析</text>
  
  <rect x="45" y="340" width="130" height="28" class="function-box"/>
  <text x="110" y="357" class="function-item">异常报警推送</text>

  <!-- 模块2: 大气监测 -->
  <rect x="190" y="145" width="140" height="223" class="module-box"/>
  <text x="260" y="165" class="module-title" text-anchor="middle">大气监测</text>
  
  <rect x="195" y="175" width="130" height="28" class="function-box"/>
  <text x="260" y="192" class="function-item">PM2.5实时监测</text>
  
  <rect x="195" y="208" width="130" height="28" class="function-box"/>
  <text x="260" y="225" class="function-item">PM10实时监测</text>
  
  <rect x="195" y="241" width="130" height="28" class="function-box"/>
  <text x="260" y="258" class="function-item">TSP实时监测</text>
  
  <rect x="195" y="274" width="130" height="28" class="function-box"/>
  <text x="260" y="291" class="function-item">统计图表展示</text>
  
  <rect x="195" y="307" width="130" height="28" class="function-box"/>
  <text x="260" y="324" class="function-item">超标阈值预警</text>
  
  <rect x="195" y="340" width="130" height="28" class="function-box"/>
  <text x="260" y="357" class="function-item">趋势对比分析</text>

  <!-- 模块3: 噪声监测 -->
  <rect x="340" y="145" width="140" height="190" class="module-box"/>
  <text x="410" y="165" class="module-title" text-anchor="middle">噪声监测</text>
  
  <rect x="345" y="175" width="130" height="28" class="function-box"/>
  <text x="410" y="192" class="function-item">实时分贝监测</text>
  
  <rect x="345" y="208" width="130" height="28" class="function-box"/>
  <text x="410" y="225" class="function-item">昼夜数据统计</text>
  
  <rect x="345" y="241" width="130" height="28" class="function-box"/>
  <text x="410" y="258" class="function-item">超标预警</text>
  
  <rect x="345" y="274" width="130" height="28" class="function-box"/>
  <text x="410" y="291" class="function-item">监测点位分布</text>
  
  <rect x="345" y="307" width="130" height="28" class="function-box"/>
  <text x="410" y="324" class="function-item">历史数据查询</text>

  <!-- 模块4: 应急管理 -->
  <rect x="40" y="385" width="140" height="157" class="module-box"/>
  <text x="110" y="405" class="module-title" text-anchor="middle">应急管理</text>
  
  <rect x="45" y="415" width="130" height="28" class="function-box"/>
  <text x="110" y="432" class="function-item">应急预案管理</text>
  
  <rect x="45" y="448" width="130" height="28" class="function-box"/>
  <text x="110" y="465" class="function-item">演练计划管理</text>
  
  <rect x="45" y="481" width="130" height="28" class="function-box"/>
  <text x="110" y="498" class="function-item">应急物资管理</text>
  
  <rect x="45" y="514" width="130" height="28" class="function-box"/>
  <text x="110" y="531" class="function-item">事件快速上报</text>

  <!-- ==================== 合规管理 - 二级模块 ==================== -->
  
  <!-- 模块5: 检测报告 -->
  <rect x="560" y="145" width="140" height="223" class="module-box"/>
  <text x="630" y="165" class="module-title" text-anchor="middle">检测报告</text>
  
  <rect x="565" y="175" width="130" height="28" class="function-box"/>
  <text x="630" y="192" class="function-item">水质检测报告</text>
  
  <rect x="565" y="208" width="130" height="28" class="function-box"/>
  <text x="630" y="225" class="function-item">土壤检测报告</text>
  
  <rect x="565" y="241" width="130" height="28" class="function-box"/>
  <text x="630" y="258" class="function-item">固废检测报告</text>
  
  <rect x="565" y="274" width="130" height="28" class="function-box"/>
  <text x="630" y="291" class="function-item">生态环境报告</text>
  
  <rect x="565" y="307" width="130" height="28" class="function-box"/>
  <text x="630" y="324" class="function-item">报告在线预览</text>
  
  <rect x="565" y="340" width="130" height="28" class="function-box"/>
  <text x="630" y="357" class="function-item">报告分类筛选</text>

  <!-- 模块6: 合规档案 -->
  <rect x="710" y="145" width="140" height="223" class="module-box"/>
  <text x="780" y="165" class="module-title" text-anchor="middle">合规档案</text>
  
  <rect x="715" y="175" width="130" height="28" class="function-box"/>
  <text x="780" y="192" class="function-item">环保批复归档</text>
  
  <rect x="715" y="208" width="130" height="28" class="function-box"/>
  <text x="780" y="225" class="function-item">验收报告归档</text>
  
  <rect x="715" y="241" width="130" height="28" class="function-box"/>
  <text x="780" y="258" class="function-item">文件上传管理</text>
  
  <rect x="715" y="274" width="130" height="28" class="function-box"/>
  <text x="780" y="291" class="function-item">在线预览标注</text>
  
  <rect x="715" y="307" width="130" height="28" class="function-box"/>
  <text x="780" y="324" class="function-item">合规性审核</text>
  
  <rect x="715" y="340" width="130" height="28" class="function-box"/>
  <text x="780" y="357" class="function-item">到期提醒</text>

  <!-- 模块7: 施工环保 -->
  <rect x="860" y="145" width="140" height="223" class="module-box"/>
  <text x="930" y="165" class="module-title" text-anchor="middle">施工环保</text>
  
  <rect x="865" y="175" width="130" height="28" class="function-box"/>
  <text x="930" y="192" class="function-item">环保台账记录</text>
  
  <rect x="865" y="208" width="130" height="28" class="function-box"/>
  <text x="930" y="225" class="function-item">设备手续登记</text>
  
  <rect x="865" y="241" width="130" height="28" class="function-box"/>
  <text x="930" y="258" class="function-item">手续校验</text>
  
  <rect x="865" y="274" width="130" height="28" class="function-box"/>
  <text x="930" y="291" class="function-item">不合规预警</text>
  
  <rect x="865" y="307" width="130" height="28" class="function-box"/>
  <text x="930" y="324" class="function-item">整改措施跟踪</text>
  
  <rect x="865" y="340" width="130" height="28" class="function-box"/>
  <text x="930" y="357" class="function-item">整改闭环管理</text>

  <!-- 模块8: 核查管理 -->
  <rect x="560" y="385" width="140" height="157" class="module-box"/>
  <text x="630" y="405" class="module-title" text-anchor="middle">核查管理</text>
  
  <rect x="565" y="415" width="130" height="28" class="function-box"/>
  <text x="630" y="432" class="function-item">政府核查记录</text>
  
  <rect x="565" y="448" width="130" height="28" class="function-box"/>
  <text x="630" y="465" class="function-item">核查问题管理</text>
  
  <rect x="565" y="481" width="130" height="28" class="function-box"/>
  <text x="630" y="498" class="function-item">整改跟踪</text>
  
  <rect x="565" y="514" width="130" height="28" class="function-box"/>
  <text x="630" y="531" class="function-item">核查统计分析</text>

  <!-- ==================== 绿色矿山 - 二级模块 ==================== -->
  
  <!-- 模块9: 绿色矿山建设 -->
  <rect x="1080" y="145" width="140" height="257" class="module-box"/>
  <text x="1150" y="165" class="module-title" text-anchor="middle">绿色矿山建设</text>
  
  <rect x="1085" y="175" width="130" height="28" class="function-box"/>
  <text x="1150" y="192" class="function-item">评价指标导入</text>
  
  <rect x="1085" y="208" width="130" height="28" class="function-box"/>
  <text x="1150" y="225" class="function-item">对标分析</text>
  
  <rect x="1085" y="241" width="130" height="28" class="function-box"/>
  <text x="1150" y="258" class="function-item">自评数据录入</text>
  
  <rect x="1085" y="274" width="130" height="28" class="function-box"/>
  <text x="1150" y="291" class="function-item">考核得分统计</text>
  
  <rect x="1085" y="307" width="130" height="28" class="function-box"/>
  <text x="1150" y="324" class="function-item">巩固方案管理</text>
  
  <rect x="1085" y="340" width="130" height="28" class="function-box"/>
  <text x="1150" y="357" class="function-item">未达标项跟踪</text>
  
  <rect x="1085" y="373" width="130" height="28" class="function-box"/>
  <text x="1150" y="390" class="function-item">建设成效展示</text>

  <!-- 模块10: 政府对接 -->
  <rect x="1230" y="145" width="140" height="223" class="module-box"/>
  <text x="1300" y="165" class="module-title" text-anchor="middle">政府对接</text>
  
  <rect x="1235" y="175" width="130" height="28" class="function-box"/>
  <text x="1300" y="192" class="function-item">环保数据上报</text>
  
  <rect x="1235" y="208" width="130" height="28" class="function-box"/>
  <text x="1300" y="225" class="function-item">自然资源上报</text>
  
  <rect x="1235" y="241" width="130" height="28" class="function-box"/>
  <text x="1300" y="258" class="function-item">在线核查对接</text>
  
  <rect x="1235" y="274" width="130" height="28" class="function-box"/>
  <text x="1300" y="291" class="function-item">第三方数据同步</text>
  
  <rect x="1235" y="307" width="130" height="28" class="function-box"/>
  <text x="1300" y="324" class="function-item">上报记录查询</text>
  
  <rect x="1235" y="340" width="130" height="28" class="function-box"/>
  <text x="1300" y="357" class="function-item">上报追溯</text>

  <!-- 模块11: 数据看板 -->
  <rect x="1380" y="145" width="140" height="190" class="module-box"/>
  <text x="1450" y="165" class="module-title" text-anchor="middle">数据看板</text>
  
  <rect x="1385" y="175" width="130" height="28" class="function-box"/>
  <text x="1450" y="192" class="function-item">环境监测大屏</text>
  
  <rect x="1385" y="208" width="130" height="28" class="function-box"/>
  <text x="1450" y="225" class="function-item">合规状态看板</text>
  
  <rect x="1385" y="241" width="130" height="28" class="function-box"/>
  <text x="1450" y="258" class="function-item">绿色矿山看板</text>
  
  <rect x="1385" y="274" width="130" height="28" class="function-box"/>
  <text x="1450" y="291" class="function-item">KPI指标展示</text>
  
  <rect x="1385" y="307" width="130" height="28" class="function-box"/>
  <text x="1450" y="324" class="function-item">可视化图表</text>

  <!-- ==================== 基础数据 - 二级模块 ==================== -->
  
  <!-- 模块12: 基础数据 -->
  <rect x="1600" y="145" width="220" height="257" class="module-box"/>
  <text x="1710" y="165" class="module-title" text-anchor="middle">基础数据管理</text>
  
  <rect x="1605" y="175" width="100" height="28" class="function-box"/>
  <text x="1655" y="192" class="function-item">监测点位管理</text>
  
  <rect x="1715" y="175" width="100" height="28" class="function-box"/>
  <text x="1765" y="192" class="function-item">设备档案管理</text>
  
  <rect x="1605" y="208" width="100" height="28" class="function-box"/>
  <text x="1655" y="225" class="function-item">检测机构管理</text>
  
  <rect x="1715" y="208" width="100" height="28" class="function-box"/>
  <text x="1765" y="225" class="function-item">供应商管理</text>
  
  <rect x="1605" y="241" width="100" height="28" class="function-box"/>
  <text x="1655" y="258" class="function-item">标准规范库</text>
  
  <rect x="1715" y="241" width="100" height="28" class="function-box"/>
  <text x="1765" y="258" class="function-item">权限角色管理</text>
  
  <rect x="1605" y="274" width="100" height="28" class="function-box"/>
  <text x="1655" y="291" class="function-item">系统配置管理</text>
  
  <rect x="1715" y="274" width="100" height="28" class="function-box"/>
  <text x="1765" y="291" class="function-item">数据字典管理</text>
  
  <rect x="1605" y="307" width="100" height="28" class="function-box"/>
  <text x="1655" y="324" class="function-item">操作日志管理</text>
  
  <rect x="1715" y="307" width="100" height="28" class="function-box"/>
  <text x="1765" y="324" class="function-item">数据导入导出</text>

  <!-- ==================== 底部说明 ==================== -->
  <rect x="40" y="570" width="2020" height="100" fill="#f6ffed" stroke="#52c41a" stroke-width="2" rx="10"/>
  <text x="1050" y="605" class="module-title" text-anchor="middle" fill="#52c41a" font-size="16px">三级功能架构说明</text>
  
  <text x="70" y="630" class="function-item" text-anchor="start" font-size="12px">• <tspan font-weight="bold">一级分类</tspan>（4个）：环境监测、合规管理、绿色矿山、基础数据 - 覆盖环保全流程管理</text>
  <text x="70" y="647" class="function-item" text-anchor="start" font-size="12px">• <tspan font-weight="bold">二级模块</tspan>（12个）：水务监控、大气监测、检测报告、绿色矿山建设等 - 具体业务模块</text>
  <text x="70" y="664" class="function-item" text-anchor="start" font-size="12px">• <tspan font-weight="bold">三级功能点</tspan>（70+个）：水泵状态监控、环保批复归档、评价指标导入等 - 最小功能单元（每个代表一个可执行的具体操作）</text>

</svg>
