<?xml version="1.0" encoding="UTF-8"?>
<svg width="1200" height="800" xmlns="http://www.w3.org/2000/svg">
  <defs>
    <linearGradient id="businessGrad" x1="0%" y1="0%" x2="100%" y2="0%">
      <stop offset="0%" style="stop-color:#fa8c16;stop-opacity:1" />
      <stop offset="100%" style="stop-color:#d4380d;stop-opacity:1" />
    </linearGradient>
    <linearGradient id="moduleGrad" x1="0%" y1="0%" x2="0%" y2="100%">
      <stop offset="0%" style="stop-color:#fff7e6;stop-opacity:1" />
      <stop offset="100%" style="stop-color:#fff2e8;stop-opacity:1" />
    </linearGradient>
    <filter id="shadow" x="-20%" y="-20%" width="140%" height="140%">
      <feDropShadow dx="2" dy="2" stdDeviation="3" flood-color="#00000020"/>
    </filter>
  </defs>
  
  <rect width="1200" height="800" fill="#fafafa"/>
  
  <!-- 标题 -->
  <rect x="0" y="0" width="1200" height="60" fill="url(#businessGrad)"/>
  <text x="600" y="35" text-anchor="middle" font-family="Arial, sans-serif" font-size="24" font-weight="bold" fill="white">
    矿山监测系统 - 业务架构图
  </text>
  
  <!-- 业务用户层 -->
  <rect x="50" y="80" width="1100" height="120" rx="8" fill="url(#moduleGrad)" stroke="#fa8c16" stroke-width="2" filter="url(#shadow)"/>
  <text x="70" y="105" font-family="Arial, sans-serif" font-size="16" font-weight="bold" fill="#fa8c16">业务用户层 (Business Users)</text>
  
  <!-- 矿山管理层 -->
  <rect x="80" y="120" width="200" height="60" rx="4" fill="#ffffff" stroke="#d4380d" stroke-width="1"/>
  <text x="180" y="140" text-anchor="middle" font-family="Arial, sans-serif" font-size="12" font-weight="bold" fill="#262626">矿山管理层</text>
  <text x="180" y="155" text-anchor="middle" font-family="Arial, sans-serif" font-size="10" fill="#666">总经理、副总经理</text>
  <text x="180" y="168" text-anchor="middle" font-family="Arial, sans-serif" font-size="10" fill="#666">决策支持、综合监管</text>
  
  <!-- 安全管理部门 -->
  <rect x="300" y="120" width="200" height="60" rx="4" fill="#ffffff" stroke="#fa541c" stroke-width="1"/>
  <text x="400" y="140" text-anchor="middle" font-family="Arial, sans-serif" font-size="12" font-weight="bold" fill="#262626">安全管理部门</text>
  <text x="400" y="155" text-anchor="middle" font-family="Arial, sans-serif" font-size="10" fill="#666">安全主管、安全员</text>
  <text x="400" y="168" text-anchor="middle" font-family="Arial, sans-serif" font-size="10" fill="#666">风险评估、应急响应</text>
  
  <!-- 生产技术部门 -->
  <rect x="520" y="120" width="200" height="60" rx="4" fill="#ffffff" stroke="#fa8c16" stroke-width="1"/>
  <text x="620" y="140" text-anchor="middle" font-family="Arial, sans-serif" font-size="12" font-weight="bold" fill="#262626">生产技术部门</text>
  <text x="620" y="155" text-anchor="middle" font-family="Arial, sans-serif" font-size="10" fill="#666">技术主管、工程师</text>
  <text x="620" y="168" text-anchor="middle" font-family="Arial, sans-serif" font-size="10" fill="#666">技术分析、方案制定</text>
  
  <!-- 运维监控中心 -->
  <rect x="740" y="120" width="200" height="60" rx="4" fill="#ffffff" stroke="#ad6800" stroke-width="1"/>
  <text x="840" y="140" text-anchor="middle" font-family="Arial, sans-serif" font-size="12" font-weight="bold" fill="#262626">运维监控中心</text>
  <text x="840" y="155" text-anchor="middle" font-family="Arial, sans-serif" font-size="10" fill="#666">监控员、值班员</text>
  <text x="840" y="168" text-anchor="middle" font-family="Arial, sans-serif" font-size="10" fill="#666">24小时监控、预警</text>
  
  <!-- 外部监管机构 -->
  <rect x="960" y="120" width="180" height="60" rx="4" fill="#ffffff" stroke="#873800" stroke-width="1"/>
  <text x="1050" y="140" text-anchor="middle" font-family="Arial, sans-serif" font-size="12" font-weight="bold" fill="#262626">外部监管机构</text>
  <text x="1050" y="155" text-anchor="middle" font-family="Arial, sans-serif" font-size="10" fill="#666">安监局、环保局</text>
  <text x="1050" y="168" text-anchor="middle" font-family="Arial, sans-serif" font-size="10" fill="#666">合规检查、数据上报</text>
  
  <!-- 核心业务域 -->
  <rect x="50" y="220" width="1100" height="200" rx="8" fill="#f6ffed" stroke="#52c41a" stroke-width="2" filter="url(#shadow)"/>
  <text x="70" y="245" font-family="Arial, sans-serif" font-size="16" font-weight="bold" fill="#52c41a">核心业务域 (Core Business Domains)</text>
  
  <!-- 安全监测业务 -->
  <rect x="80" y="260" width="250" height="140" rx="4" fill="#ffffff" stroke="#1890ff" stroke-width="1"/>
  <text x="205" y="280" text-anchor="middle" font-family="Arial, sans-serif" font-size="14" font-weight="bold" fill="#262626">安全监测业务</text>
  <circle cx="120" cy="300" r="3" fill="#1890ff"/>
  <text x="130" y="305" font-family="Arial, sans-serif" font-size="11" fill="#666">边坡稳定性监测</text>
  <circle cx="120" cy="315" r="3" fill="#1890ff"/>
  <text x="130" y="320" font-family="Arial, sans-serif" font-size="11" fill="#666">地质灾害预警</text>
  <circle cx="120" cy="330" r="3" fill="#1890ff"/>
  <text x="130" y="335" font-family="Arial, sans-serif" font-size="11" fill="#666">结构健康监测</text>
  <circle cx="120" cy="345" r="3" fill="#1890ff"/>
  <text x="130" y="350" font-family="Arial, sans-serif" font-size="11" fill="#666">环境安全评估</text>
  <circle cx="120" cy="360" r="3" fill="#1890ff"/>
  <text x="130" y="365" font-family="Arial, sans-serif" font-size="11" fill="#666">应急响应管理</text>
  <circle cx="120" cy="375" r="3" fill="#1890ff"/>
  <text x="130" y="380" font-family="Arial, sans-serif" font-size="11" fill="#666">安全风险评级</text>
  
  <!-- 生产运营业务 -->
  <rect x="350" y="260" width="250" height="140" rx="4" fill="#ffffff" stroke="#52c41a" stroke-width="1"/>
  <text x="475" y="280" text-anchor="middle" font-family="Arial, sans-serif" font-size="14" font-weight="bold" fill="#262626">生产运营业务</text>
  <circle cx="390" cy="300" r="3" fill="#52c41a"/>
  <text x="400" y="305" font-family="Arial, sans-serif" font-size="11" fill="#666">开采进度监控</text>
  <circle cx="390" cy="315" r="3" fill="#52c41a"/>
  <text x="400" y="320" font-family="Arial, sans-serif" font-size="11" fill="#666">设备运行状态</text>
  <circle cx="390" cy="330" r="3" fill="#52c41a"/>
  <text x="400" y="335" font-family="Arial, sans-serif" font-size="11" fill="#666">产量统计分析</text>
  <circle cx="390" cy="345" r="3" fill="#52c41a"/>
  <text x="400" y="350" font-family="Arial, sans-serif" font-size="11" fill="#666">作业计划管理</text>
  <circle cx="390" cy="360" r="3" fill="#52c41a"/>
  <text x="400" y="365" font-family="Arial, sans-serif" font-size="11" fill="#666">资源配置优化</text>
  <circle cx="390" cy="375" r="3" fill="#52c41a"/>
  <text x="400" y="380" font-family="Arial, sans-serif" font-size="11" fill="#666">效率绩效评估</text>
  
  <!-- 环境保护业务 -->
  <rect x="620" y="260" width="250" height="140" rx="4" fill="#ffffff" stroke="#13c2c2" stroke-width="1"/>
  <text x="745" y="280" text-anchor="middle" font-family="Arial, sans-serif" font-size="14" font-weight="bold" fill="#262626">环境保护业务</text>
  <circle cx="660" cy="300" r="3" fill="#13c2c2"/>
  <text x="670" y="305" font-family="Arial, sans-serif" font-size="11" fill="#666">大气环境监测</text>
  <circle cx="660" cy="315" r="3" fill="#13c2c2"/>
  <text x="670" y="320" font-family="Arial, sans-serif" font-size="11" fill="#666">水质污染监控</text>
  <circle cx="660" cy="330" r="3" fill="#13c2c2"/>
  <text x="670" y="335" font-family="Arial, sans-serif" font-size="11" fill="#666">噪声振动控制</text>
  <circle cx="660" cy="345" r="3" fill="#13c2c2"/>
  <text x="670" y="350" font-family="Arial, sans-serif" font-size="11" fill="#666">生态恢复监督</text>
  <circle cx="660" cy="360" r="3" fill="#13c2c2"/>
  <text x="670" y="365" font-family="Arial, sans-serif" font-size="11" fill="#666">排放达标管理</text>
  <circle cx="660" cy="375" r="3" fill="#13c2c2"/>
  <text x="670" y="380" font-family="Arial, sans-serif" font-size="11" fill="#666">环保合规报告</text>
  
  <!-- 智能决策业务 -->
  <rect x="890" y="260" width="250" height="140" rx="4" fill="#ffffff" stroke="#722ed1" stroke-width="1"/>
  <text x="1015" y="280" text-anchor="middle" font-family="Arial, sans-serif" font-size="14" font-weight="bold" fill="#262626">智能决策业务</text>
  <circle cx="930" cy="300" r="3" fill="#722ed1"/>
  <text x="940" y="305" font-family="Arial, sans-serif" font-size="11" fill="#666">数据驱动决策</text>
  <circle cx="930" cy="315" r="3" fill="#722ed1"/>
  <text x="940" y="320" font-family="Arial, sans-serif" font-size="11" fill="#666">预测性维护</text>
  <circle cx="930" cy="330" r="3" fill="#722ed1"/>
  <text x="940" y="335" font-family="Arial, sans-serif" font-size="11" fill="#666">风险预测模型</text>
  <circle cx="930" cy="345" r="3" fill="#722ed1"/>
  <text x="940" y="350" font-family="Arial, sans-serif" font-size="11" fill="#666">智能告警推送</text>
  <circle cx="930" cy="360" r="3" fill="#722ed1"/>
  <text x="940" y="365" font-family="Arial, sans-serif" font-size="11" fill="#666">优化建议生成</text>
  <circle cx="930" cy="375" r="3" fill="#722ed1"/>
  <text x="940" y="380" font-family="Arial, sans-serif" font-size="11" fill="#666">战略规划支持</text>
  
  <!-- 业务流程层 -->
  <rect x="50" y="440" width="1100" height="160" rx="8" fill="#fff2e8" stroke="#fa8c16" stroke-width="2" filter="url(#shadow)"/>
  <text x="70" y="465" font-family="Arial, sans-serif" font-size="16" font-weight="bold" fill="#fa8c16">业务流程层 (Business Processes)</text>
  
  <!-- 监测数据采集流程 -->
  <rect x="80" y="480" width="200" height="100" rx="4" fill="#ffffff" stroke="#1890ff" stroke-width="1"/>
  <text x="180" y="500" text-anchor="middle" font-family="Arial, sans-serif" font-size="12" font-weight="bold" fill="#262626">监测数据采集</text>
  <text x="90" y="520" font-family="Arial, sans-serif" font-size="10" fill="#666">1. 设备自动采集</text>
  <text x="90" y="535" font-family="Arial, sans-serif" font-size="10" fill="#666">2. 数据质量检查</text>
  <text x="90" y="550" font-family="Arial, sans-serif" font-size="10" fill="#666">3. 实时传输存储</text>
  <text x="90" y="565" font-family="Arial, sans-serif" font-size="10" fill="#666">4. 异常数据标记</text>
  
  <!-- 风险评估流程 -->
  <rect x="300" y="480" width="200" height="100" rx="4" fill="#ffffff" stroke="#ff4d4f" stroke-width="1"/>
  <text x="400" y="500" text-anchor="middle" font-family="Arial, sans-serif" font-size="12" font-weight="bold" fill="#262626">风险评估流程</text>
  <text x="310" y="520" font-family="Arial, sans-serif" font-size="10" fill="#666">1. 多源数据融合</text>
  <text x="310" y="535" font-family="Arial, sans-serif" font-size="10" fill="#666">2. 智能风险分析</text>
  <text x="310" y="550" font-family="Arial, sans-serif" font-size="10" fill="#666">3. 风险等级评定</text>
  <text x="310" y="565" font-family="Arial, sans-serif" font-size="10" fill="#666">4. 预警信息发布</text>
  
  <!-- 应急响应流程 -->
  <rect x="520" y="480" width="200" height="100" rx="4" fill="#ffffff" stroke="#faad14" stroke-width="1"/>
  <text x="620" y="500" text-anchor="middle" font-family="Arial, sans-serif" font-size="12" font-weight="bold" fill="#262626">应急响应流程</text>
  <text x="530" y="520" font-family="Arial, sans-serif" font-size="10" fill="#666">1. 告警信息确认</text>
  <text x="530" y="535" font-family="Arial, sans-serif" font-size="10" fill="#666">2. 应急预案启动</text>
  <text x="530" y="550" font-family="Arial, sans-serif" font-size="10" fill="#666">3. 人员疏散组织</text>
  <text x="530" y="565" font-family="Arial, sans-serif" font-size="10" fill="#666">4. 处置效果评估</text>
  
  <!-- 决策支持流程 -->
  <rect x="740" y="480" width="200" height="100" rx="4" fill="#ffffff" stroke="#52c41a" stroke-width="1"/>
  <text x="840" y="500" text-anchor="middle" font-family="Arial, sans-serif" font-size="12" font-weight="bold" fill="#262626">决策支持流程</text>
  <text x="750" y="520" font-family="Arial, sans-serif" font-size="10" fill="#666">1. 数据统计分析</text>
  <text x="750" y="535" font-family="Arial, sans-serif" font-size="10" fill="#666">2. 趋势预测建模</text>
  <text x="750" y="550" font-family="Arial, sans-serif" font-size="10" fill="#666">3. 方案对比评估</text>
  <text x="750" y="565" font-family="Arial, sans-serif" font-size="10" fill="#666">4. 决策建议输出</text>
  
  <!-- 合规管理流程 -->
  <rect x="960" y="480" width="180" height="100" rx="4" fill="#ffffff" stroke="#722ed1" stroke-width="1"/>
  <text x="1050" y="500" text-anchor="middle" font-family="Arial, sans-serif" font-size="12" font-weight="bold" fill="#262626">合规管理流程</text>
  <text x="970" y="520" font-family="Arial, sans-serif" font-size="10" fill="#666">1. 标准规范对照</text>
  <text x="970" y="535" font-family="Arial, sans-serif" font-size="10" fill="#666">2. 合规性检查</text>
  <text x="970" y="550" font-family="Arial, sans-serif" font-size="10" fill="#666">3. 报告自动生成</text>
  <text x="970" y="565" font-family="Arial, sans-serif" font-size="10" fill="#666">4. 监管部门上报</text>
  
  <!-- 业务能力层 -->
  <rect x="50" y="620" width="1100" height="120" rx="8" fill="#f0f5ff" stroke="#722ed1" stroke-width="2" filter="url(#shadow)"/>
  <text x="70" y="645" font-family="Arial, sans-serif" font-size="16" font-weight="bold" fill="#722ed1">业务能力层 (Business Capabilities)</text>
  
  <!-- 数据管理能力 -->
  <rect x="80" y="660" width="180" height="60" rx="4" fill="#ffffff" stroke="#1890ff" stroke-width="1"/>
  <text x="170" y="680" text-anchor="middle" font-family="Arial, sans-serif" font-size="12" font-weight="bold" fill="#262626">数据管理能力</text>
  <text x="170" y="695" text-anchor="middle" font-family="Arial, sans-serif" font-size="10" fill="#666">海量数据处理</text>
  <text x="170" y="708" text-anchor="middle" font-family="Arial, sans-serif" font-size="10" fill="#666">数据质量保障</text>
  
  <!-- 智能分析能力 -->
  <rect x="280" y="660" width="180" height="60" rx="4" fill="#ffffff" stroke="#52c41a" stroke-width="1"/>
  <text x="370" y="680" text-anchor="middle" font-family="Arial, sans-serif" font-size="12" font-weight="bold" fill="#262626">智能分析能力</text>
  <text x="370" y="695" text-anchor="middle" font-family="Arial, sans-serif" font-size="10" fill="#666">机器学习算法</text>
  <text x="370" y="708" text-anchor="middle" font-family="Arial, sans-serif" font-size="10" fill="#666">预测模型构建</text>
  
  <!-- 可视化展示能力 -->
  <rect x="480" y="660" width="180" height="60" rx="4" fill="#ffffff" stroke="#faad14" stroke-width="1"/>
  <text x="570" y="680" text-anchor="middle" font-family="Arial, sans-serif" font-size="12" font-weight="bold" fill="#262626">可视化展示能力</text>
  <text x="570" y="695" text-anchor="middle" font-family="Arial, sans-serif" font-size="10" fill="#666">多维数据展示</text>
  <text x="570" y="708" text-anchor="middle" font-family="Arial, sans-serif" font-size="10" fill="#666">交互式图表</text>
  
  <!-- 协同工作能力 -->
  <rect x="680" y="660" width="180" height="60" rx="4" fill="#ffffff" stroke="#ff4d4f" stroke-width="1"/>
  <text x="770" y="680" text-anchor="middle" font-family="Arial, sans-serif" font-size="12" font-weight="bold" fill="#262626">协同工作能力</text>
  <text x="770" y="695" text-anchor="middle" font-family="Arial, sans-serif" font-size="10" fill="#666">多部门协作</text>
  <text x="770" y="708" text-anchor="middle" font-family="Arial, sans-serif" font-size="10" fill="#666">信息共享机制</text>
  
  <!-- 移动办公能力 -->
  <rect x="880" y="660" width="180" height="60" rx="4" fill="#ffffff" stroke="#13c2c2" stroke-width="1"/>
  <text x="970" y="680" text-anchor="middle" font-family="Arial, sans-serif" font-size="12" font-weight="bold" fill="#262626">移动办公能力</text>
  <text x="970" y="695" text-anchor="middle" font-family="Arial, sans-serif" font-size="10" fill="#666">随时随地访问</text>
  <text x="970" y="708" text-anchor="middle" font-family="Arial, sans-serif" font-size="10" fill="#666">离线数据同步</text>
  
  <!-- 集成扩展能力 -->
  <rect x="1080" y="660" width="60" height="60" rx="4" fill="#ffffff" stroke="#722ed1" stroke-width="1"/>
  <text x="1110" y="680" text-anchor="middle" font-family="Arial, sans-serif" font-size="11" font-weight="bold" fill="#262626">集成</text>
  <text x="1110" y="695" text-anchor="middle" font-family="Arial, sans-serif" font-size="9" fill="#666">扩展</text>
  <text x="1110" y="708" text-anchor="middle" font-family="Arial, sans-serif" font-size="9" fill="#666">能力</text>
  
  <!-- 连接线 -->
  <defs>
    <marker id="arrowhead" markerWidth="10" markerHeight="7" refX="9" refY="3.5" orient="auto">
      <polygon points="0 0, 10 3.5, 0 7" fill="#666" />
    </marker>
  </defs>
  
  <!-- 垂直连接线 -->
  <line x1="600" y1="200" x2="600" y2="220" stroke="#666" stroke-width="2" marker-end="url(#arrowhead)"/>
  <line x1="600" y1="420" x2="600" y2="440" stroke="#666" stroke-width="2" marker-end="url(#arrowhead)"/>
  <line x1="600" y1="600" x2="600" y2="620" stroke="#666" stroke-width="2" marker-end="url(#arrowhead)"/>
  
  <!-- 业务流程连接线 -->
  <path d="M 280 530 Q 340 510 380 530" stroke="#fa8c16" stroke-width="2" fill="none" marker-end="url(#arrowhead)"/>
  <path d="M 500 530 Q 560 510 600 530" stroke="#fa8c16" stroke-width="2" fill="none" marker-end="url(#arrowhead)"/>
  <path d="M 720 530 Q 780 510 820 530" stroke="#fa8c16" stroke-width="2" fill="none" marker-end="url(#arrowhead)"/>
  
  <!-- 业务价值指标 -->
  <rect x="50" y="760" width="1100" height="30" rx="4" fill="#fff7e6" stroke="#fa8c16" stroke-width="1"/>
  <text x="70" y="780" font-family="Arial, sans-serif" font-size="12" font-weight="bold" fill="#262626">业务价值：</text>
  <text x="150" y="780" font-family="Arial, sans-serif" font-size="11" fill="#666">安全事故降低90% | 监测效率提升300% | 决策响应时间缩短80% | 合规达标率100%</text>
  
  <!-- 版本信息 -->
  <text x="1150" y="790" text-anchor="end" font-family="Arial, sans-serif" font-size="10" fill="#999">
    Version 2.0 | 2024-01-15
  </text>
</svg>
