<?xml version="1.0" encoding="UTF-8"?>
<svg width="1200" height="800" xmlns="http://www.w3.org/2000/svg">
  <defs>
    <linearGradient id="headerGrad" x1="0%" y1="0%" x2="100%" y2="0%">
      <stop offset="0%" style="stop-color:#1890ff;stop-opacity:1" />
      <stop offset="100%" style="stop-color:#722ed1;stop-opacity:1" />
    </linearGradient>
    <linearGradient id="moduleGrad" x1="0%" y1="0%" x2="0%" y2="100%">
      <stop offset="0%" style="stop-color:#f0f9ff;stop-opacity:1" />
      <stop offset="100%" style="stop-color:#e6f7ff;stop-opacity:1" />
    </linearGradient>
    <filter id="shadow" x="-20%" y="-20%" width="140%" height="140%">
      <feDropShadow dx="2" dy="2" stdDeviation="3" flood-color="#00000020"/>
    </filter>
  </defs>
  
  <!-- 背景 -->
  <rect width="1200" height="800" fill="#fafafa"/>
  
  <!-- 标题 -->
  <rect x="0" y="0" width="1200" height="60" fill="url(#headerGrad)"/>
  <text x="600" y="35" text-anchor="middle" font-family="Arial, sans-serif" font-size="24" font-weight="bold" fill="white">
    矿山监测系统 - 功能架构图
  </text>
  
  <!-- 用户界面层 -->
  <rect x="50" y="80" width="1100" height="120" rx="8" fill="url(#moduleGrad)" stroke="#1890ff" stroke-width="2" filter="url(#shadow)"/>
  <text x="70" y="105" font-family="Arial, sans-serif" font-size="16" font-weight="bold" fill="#1890ff">用户界面层 (Presentation Layer)</text>
  
  <!-- 首页综合态势 -->
  <rect x="80" y="120" width="160" height="60" rx="4" fill="#ffffff" stroke="#52c41a" stroke-width="1"/>
  <text x="160" y="140" text-anchor="middle" font-family="Arial, sans-serif" font-size="12" font-weight="bold" fill="#262626">综合态势一张图</text>
  <text x="160" y="155" text-anchor="middle" font-family="Arial, sans-serif" font-size="10" fill="#666">实时监控仪表板</text>
  <text x="160" y="168" text-anchor="middle" font-family="Arial, sans-serif" font-size="10" fill="#666">GIS地图集成</text>
  
  <!-- 监测数据模块 -->
  <rect x="260" y="120" width="160" height="60" rx="4" fill="#ffffff" stroke="#1890ff" stroke-width="1"/>
  <text x="340" y="140" text-anchor="middle" font-family="Arial, sans-serif" font-size="12" font-weight="bold" fill="#262626">监测数据管理</text>
  <text x="340" y="155" text-anchor="middle" font-family="Arial, sans-serif" font-size="10" fill="#666">7类监测设备</text>
  <text x="340" y="168" text-anchor="middle" font-family="Arial, sans-serif" font-size="10" fill="#666">实时图表展示</text>
  
  <!-- 空天风险监测 -->
  <rect x="440" y="120" width="160" height="60" rx="4" fill="#ffffff" stroke="#722ed1" stroke-width="1"/>
  <text x="520" y="140" text-anchor="middle" font-family="Arial, sans-serif" font-size="12" font-weight="bold" fill="#262626">空天风险监测</text>
  <text x="520" y="155" text-anchor="middle" font-family="Arial, sans-serif" font-size="10" fill="#666">多维风险评估</text>
  <text x="520" y="168" text-anchor="middle" font-family="Arial, sans-serif" font-size="10" fill="#666">气象数据集成</text>
  
  <!-- 告警管理 -->
  <rect x="620" y="120" width="160" height="60" rx="4" fill="#ffffff" stroke="#ff4d4f" stroke-width="1"/>
  <text x="700" y="140" text-anchor="middle" font-family="Arial, sans-serif" font-size="12" font-weight="bold" fill="#262626">告警记录管理</text>
  <text x="700" y="155" text-anchor="middle" font-family="Arial, sans-serif" font-size="10" fill="#666">实时告警推送</text>
  <text x="700" y="168" text-anchor="middle" font-family="Arial, sans-serif" font-size="10" fill="#666">风险等级分类</text>
  
  <!-- 数据上报 -->
  <rect x="800" y="120" width="160" height="60" rx="4" fill="#ffffff" stroke="#faad14" stroke-width="1"/>
  <text x="880" y="140" text-anchor="middle" font-family="Arial, sans-serif" font-size="12" font-weight="bold" fill="#262626">数据上报管理</text>
  <text x="880" y="155" text-anchor="middle" font-family="Arial, sans-serif" font-size="10" fill="#666">控制台管理</text>
  <text x="880" y="168" text-anchor="middle" font-family="Arial, sans-serif" font-size="10" fill="#666">历史查询</text>
  
  <!-- 系统管理 -->
  <rect x="980" y="120" width="160" height="60" rx="4" fill="#ffffff" stroke="#13c2c2" stroke-width="1"/>
  <text x="1060" y="140" text-anchor="middle" font-family="Arial, sans-serif" font-size="12" font-weight="bold" fill="#262626">系统管理</text>
  <text x="1060" y="155" text-anchor="middle" font-family="Arial, sans-serif" font-size="10" fill="#666">账号管理</text>
  <text x="1060" y="168" text-anchor="middle" font-family="Arial, sans-serif" font-size="10" fill="#666">系统配置</text>
  
  <!-- 业务逻辑层 -->
  <rect x="50" y="220" width="1100" height="180" rx="8" fill="url(#moduleGrad)" stroke="#52c41a" stroke-width="2" filter="url(#shadow)"/>
  <text x="70" y="245" font-family="Arial, sans-serif" font-size="16" font-weight="bold" fill="#52c41a">业务逻辑层 (Business Logic Layer)</text>
  
  <!-- 监测数据处理 -->
  <rect x="80" y="260" width="200" height="120" rx="4" fill="#ffffff" stroke="#1890ff" stroke-width="1"/>
  <text x="180" y="280" text-anchor="middle" font-family="Arial, sans-serif" font-size="14" font-weight="bold" fill="#262626">监测数据处理</text>
  <circle cx="120" cy="300" r="3" fill="#52c41a"/>
  <text x="130" y="305" font-family="Arial, sans-serif" font-size="11" fill="#666">表面位移分析</text>
  <circle cx="120" cy="315" r="3" fill="#52c41a"/>
  <text x="130" y="320" font-family="Arial, sans-serif" font-size="11" fill="#666">裂缝计数据处理</text>
  <circle cx="120" cy="330" r="3" fill="#52c41a"/>
  <text x="130" y="335" font-family="Arial, sans-serif" font-size="11" fill="#666">土压力监测</text>
  <circle cx="120" cy="345" r="3" fill="#52c41a"/>
  <text x="130" y="350" font-family="Arial, sans-serif" font-size="11" fill="#666">地下水位监测</text>
  <circle cx="120" cy="360" r="3" fill="#52c41a"/>
  <text x="130" y="365" font-family="Arial, sans-serif" font-size="11" fill="#666">振动雷达分析</text>
  
  <!-- GIS地图服务 -->
  <rect x="300" y="260" width="200" height="120" rx="4" fill="#ffffff" stroke="#722ed1" stroke-width="1"/>
  <text x="400" y="280" text-anchor="middle" font-family="Arial, sans-serif" font-size="14" font-weight="bold" fill="#262626">GIS地图服务</text>
  <circle cx="340" cy="300" r="3" fill="#722ed1"/>
  <text x="350" y="305" font-family="Arial, sans-serif" font-size="11" fill="#666">监测点分布管理</text>
  <circle cx="340" cy="315" r="3" fill="#722ed1"/>
  <text x="350" y="320" font-family="Arial, sans-serif" font-size="11" fill="#666">图层控制服务</text>
  <circle cx="340" cy="330" r="3" fill="#722ed1"/>
  <text x="350" y="335" font-family="Arial, sans-serif" font-size="11" fill="#666">空间数据分析</text>
  <circle cx="340" cy="345" r="3" fill="#722ed1"/>
  <text x="350" y="350" font-family="Arial, sans-serif" font-size="11" fill="#666">交互式地图操作</text>
  
  <!-- 风险评估引擎 -->
  <rect x="520" y="260" width="200" height="120" rx="4" fill="#ffffff" stroke="#ff4d4f" stroke-width="1"/>
  <text x="620" y="280" text-anchor="middle" font-family="Arial, sans-serif" font-size="14" font-weight="bold" fill="#262626">风险评估引擎</text>
  <circle cx="560" cy="300" r="3" fill="#ff4d4f"/>
  <text x="570" y="305" font-family="Arial, sans-serif" font-size="11" fill="#666">空天风险分析</text>
  <circle cx="560" cy="315" r="3" fill="#ff4d4f"/>
  <text x="570" y="320" font-family="Arial, sans-serif" font-size="11" fill="#666">气象数据融合</text>
  <circle cx="560" cy="330" r="3" fill="#ff4d4f"/>
  <text x="570" y="335" font-family="Arial, sans-serif" font-size="11" fill="#666">多维风险建模</text>
  <circle cx="560" cy="345" r="3" fill="#ff4d4f"/>
  <text x="570" y="350" font-family="Arial, sans-serif" font-size="11" fill="#666">智能告警推送</text>
  
  <!-- 数据可视化引擎 -->
  <rect x="740" y="260" width="200" height="120" rx="4" fill="#ffffff" stroke="#faad14" stroke-width="1"/>
  <text x="840" y="280" text-anchor="middle" font-family="Arial, sans-serif" font-size="14" font-weight="bold" fill="#262626">数据可视化引擎</text>
  <circle cx="780" cy="300" r="3" fill="#faad14"/>
  <text x="790" y="305" font-family="Arial, sans-serif" font-size="11" fill="#666">ECharts图表生成</text>
  <circle cx="780" cy="315" r="3" fill="#faad14"/>
  <text x="790" y="320" font-family="Arial, sans-serif" font-size="11" fill="#666">实时数据渲染</text>
  <circle cx="780" cy="330" r="3" fill="#faad14"/>
  <text x="790" y="335" font-family="Arial, sans-serif" font-size="11" fill="#666">趋势分析展示</text>
  <circle cx="780" cy="345" r="3" fill="#faad14"/>
  <text x="790" y="350" font-family="Arial, sans-serif" font-size="11" fill="#666">响应式图表适配</text>
  
  <!-- 系统服务层 -->
  <rect x="960" y="260" width="180" height="120" rx="4" fill="#ffffff" stroke="#13c2c2" stroke-width="1"/>
  <text x="1050" y="280" text-anchor="middle" font-family="Arial, sans-serif" font-size="14" font-weight="bold" fill="#262626">系统服务</text>
  <circle cx="1000" cy="300" r="3" fill="#13c2c2"/>
  <text x="1010" y="305" font-family="Arial, sans-serif" font-size="11" fill="#666">用户认证</text>
  <circle cx="1000" cy="315" r="3" fill="#13c2c2"/>
  <text x="1010" y="320" font-family="Arial, sans-serif" font-size="11" fill="#666">权限管理</text>
  <circle cx="1000" cy="330" r="3" fill="#13c2c2"/>
  <text x="1010" y="335" font-family="Arial, sans-serif" font-size="11" fill="#666">系统配置</text>
  <circle cx="1000" cy="345" r="3" fill="#13c2c2"/>
  <text x="1010" y="350" font-family="Arial, sans-serif" font-size="11" fill="#666">日志管理</text>
  
  <!-- 数据访问层 -->
  <rect x="50" y="420" width="1100" height="120" rx="8" fill="url(#moduleGrad)" stroke="#faad14" stroke-width="2" filter="url(#shadow)"/>
  <text x="70" y="445" font-family="Arial, sans-serif" font-size="16" font-weight="bold" fill="#faad14">数据访问层 (Data Access Layer)</text>
  
  <!-- 数据接口 -->
  <rect x="80" y="460" width="180" height="60" rx="4" fill="#ffffff" stroke="#1890ff" stroke-width="1"/>
  <text x="170" y="480" text-anchor="middle" font-family="Arial, sans-serif" font-size="12" font-weight="bold" fill="#262626">数据接口服务</text>
  <text x="170" y="495" text-anchor="middle" font-family="Arial, sans-serif" font-size="10" fill="#666">RESTful API</text>
  <text x="170" y="508" text-anchor="middle" font-family="Arial, sans-serif" font-size="10" fill="#666">WebSocket实时推送</text>
  
  <!-- 缓存层 -->
  <rect x="280" y="460" width="180" height="60" rx="4" fill="#ffffff" stroke="#52c41a" stroke-width="1"/>
  <text x="370" y="480" text-anchor="middle" font-family="Arial, sans-serif" font-size="12" font-weight="bold" fill="#262626">缓存管理</text>
  <text x="370" y="495" text-anchor="middle" font-family="Arial, sans-serif" font-size="10" fill="#666">Redis缓存</text>
  <text x="370" y="508" text-anchor="middle" font-family="Arial, sans-serif" font-size="10" fill="#666">内存数据优化</text>
  
  <!-- 数据处理 -->
  <rect x="480" y="460" width="180" height="60" rx="4" fill="#ffffff" stroke="#722ed1" stroke-width="1"/>
  <text x="570" y="480" text-anchor="middle" font-family="Arial, sans-serif" font-size="12" font-weight="bold" fill="#262626">数据处理引擎</text>
  <text x="570" y="495" text-anchor="middle" font-family="Arial, sans-serif" font-size="10" fill="#666">实时数据流处理</text>
  <text x="570" y="508" text-anchor="middle" font-family="Arial, sans-serif" font-size="10" fill="#666">批量数据分析</text>
  
  <!-- 外部接口 -->
  <rect x="680" y="460" width="180" height="60" rx="4" fill="#ffffff" stroke="#ff4d4f" stroke-width="1"/>
  <text x="770" y="480" text-anchor="middle" font-family="Arial, sans-serif" font-size="12" font-weight="bold" fill="#262626">外部系统接口</text>
  <text x="770" y="495" text-anchor="middle" font-family="Arial, sans-serif" font-size="10" fill="#666">气象数据API</text>
  <text x="770" y="508" text-anchor="middle" font-family="Arial, sans-serif" font-size="10" fill="#666">第三方监测设备</text>
  
  <!-- 数据存储 -->
  <rect x="880" y="460" width="260" height="60" rx="4" fill="#ffffff" stroke="#13c2c2" stroke-width="1"/>
  <text x="1010" y="480" text-anchor="middle" font-family="Arial, sans-serif" font-size="12" font-weight="bold" fill="#262626">数据存储管理</text>
  <text x="1010" y="495" text-anchor="middle" font-family="Arial, sans-serif" font-size="10" fill="#666">时序数据库 + 关系数据库 + 文件存储</text>
  
  <!-- 基础设施层 -->
  <rect x="50" y="560" width="1100" height="120" rx="8" fill="url(#moduleGrad)" stroke="#ff4d4f" stroke-width="2" filter="url(#shadow)"/>
  <text x="70" y="585" font-family="Arial, sans-serif" font-size="16" font-weight="bold" fill="#ff4d4f">基础设施层 (Infrastructure Layer)</text>
  
  <!-- 监测设备 -->
  <rect x="80" y="600" width="200" height="60" rx="4" fill="#ffffff" stroke="#52c41a" stroke-width="1"/>
  <text x="180" y="620" text-anchor="middle" font-family="Arial, sans-serif" font-size="12" font-weight="bold" fill="#262626">物理监测设备</text>
  <text x="180" y="635" text-anchor="middle" font-family="Arial, sans-serif" font-size="10" fill="#666">GNSS、雷达、传感器等</text>
  <text x="180" y="648" text-anchor="middle" font-family="Arial, sans-serif" font-size="10" fill="#666">164台设备在线监控</text>
  
  <!-- 网络通信 -->
  <rect x="300" y="600" width="200" height="60" rx="4" fill="#ffffff" stroke="#1890ff" stroke-width="1"/>
  <text x="400" y="620" text-anchor="middle" font-family="Arial, sans-serif" font-size="12" font-weight="bold" fill="#262626">网络通信基础</text>
  <text x="400" y="635" text-anchor="middle" font-family="Arial, sans-serif" font-size="10" fill="#666">4G/5G/光纤网络</text>
  <text x="400" y="648" text-anchor="middle" font-family="Arial, sans-serif" font-size="10" fill="#666">数据传输协议</text>
  
  <!-- 云平台 -->
  <rect x="520" y="600" width="200" height="60" rx="4" fill="#ffffff" stroke="#722ed1" stroke-width="1"/>
  <text x="620" y="620" text-anchor="middle" font-family="Arial, sans-serif" font-size="12" font-weight="bold" fill="#262626">云计算平台</text>
  <text x="620" y="635" text-anchor="middle" font-family="Arial, sans-serif" font-size="10" fill="#666">弹性计算资源</text>
  <text x="620" y="648" text-anchor="middle" font-family="Arial, sans-serif" font-size="10" fill="#666">自动扩缩容</text>
  
  <!-- 安全防护 -->
  <rect x="740" y="600" width="200" height="60" rx="4" fill="#ffffff" stroke="#faad14" stroke-width="1"/>
  <text x="840" y="620" text-anchor="middle" font-family="Arial, sans-serif" font-size="12" font-weight="bold" fill="#262626">安全防护体系</text>
  <text x="840" y="635" text-anchor="middle" font-family="Arial, sans-serif" font-size="10" fill="#666">数据加密传输</text>
  <text x="840" y="648" text-anchor="middle" font-family="Arial, sans-serif" font-size="10" fill="#666">访问控制认证</text>
  
  <!-- 运维监控 -->
  <rect x="960" y="600" width="180" height="60" rx="4" fill="#ffffff" stroke="#13c2c2" stroke-width="1"/>
  <text x="1050" y="620" text-anchor="middle" font-family="Arial, sans-serif" font-size="12" font-weight="bold" fill="#262626">运维监控</text>
  <text x="1050" y="635" text-anchor="middle" font-family="Arial, sans-serif" font-size="10" fill="#666">系统健康监控</text>
  <text x="1050" y="648" text-anchor="middle" font-family="Arial, sans-serif" font-size="10" fill="#666">自动化运维</text>
  
  <!-- 连接线 -->
  <defs>
    <marker id="arrowhead" markerWidth="10" markerHeight="7" refX="9" refY="3.5" orient="auto">
      <polygon points="0 0, 10 3.5, 0 7" fill="#666" />
    </marker>
  </defs>
  
  <!-- 垂直连接线 -->
  <line x1="600" y1="200" x2="600" y2="220" stroke="#666" stroke-width="2" marker-end="url(#arrowhead)"/>
  <line x1="600" y1="400" x2="600" y2="420" stroke="#666" stroke-width="2" marker-end="url(#arrowhead)"/>
  <line x1="600" y1="540" x2="600" y2="560" stroke="#666" stroke-width="2" marker-end="url(#arrowhead)"/>
  
  <!-- 版本信息 -->
  <text x="1150" y="790" text-anchor="end" font-family="Arial, sans-serif" font-size="10" fill="#999">
    Version 2.0 | 2024-01-15
  </text>
</svg>
